<?xml version="1.0" encoding="utf-8"?>
<!-- Generator: Adobe Illustrator 23.0.2, SVG Export Plug-In . SVG Version: 6.00 Build 0)  -->
<svg version="1.1" id="Layer_1" xmlns="http://www.w3.org/2000/svg" xmlns:xlink="http://www.w3.org/1999/xlink" x="0px" y="0px"
	 viewBox="0 0 1087.23 511.74" style="enable-background:new 0 0 1087.23 511.74;" xml:space="preserve">
<style type="text/css">
	.st0{fill:#B3D334;}
	.st1{fill:#B3D234;}
	.st2{fill:#F8F6F3;}
	.st3{fill:#3F4847;}
	.st4{fill:#C9DA31;}
	.st5{enable-background:new    ;}
</style>
<g>
	<g>
		<circle class="st0" cx="936.03" cy="4436" r="1.42"/>
		<circle class="st0" cx="1219.5" cy="4436" r="1.42"/>
		<circle class="st0" cx="1502.96" cy="4436" r="1.42"/>
		<circle class="st0" cx="1786.43" cy="4436" r="1.42"/>
		<circle class="st0" cx="2069.89" cy="4436" r="1.42"/>
		<circle class="st0" cx="2353.35" cy="4436" r="1.42"/>
		<circle class="st0" cx="2636.82" cy="4436" r="1.42"/>
		<circle class="st0" cx="2920.28" cy="4436" r="1.42"/>
		<circle class="st0" cx="3203.75" cy="4436" r="1.42"/>
		<circle class="st0" cx="3487.21" cy="4436" r="1.42"/>
		<circle class="st0" cx="3770.68" cy="4436" r="1.42"/>
		<circle class="st0" cx="4054.14" cy="4436" r="1.42"/>
		<circle class="st0" cx="4621.07" cy="4436" r="1.42"/>
		<circle class="st0" cx="4337.61" cy="4436" r="1.42"/>
		<circle class="st0" cx="4904.54" cy="4436" r="1.42"/>
		<circle class="st0" cx="5188" cy="4436" r="1.42"/>
		<circle class="st0" cx="5471.46" cy="4436" r="1.42"/>
		<circle class="st0" cx="5754.93" cy="4436" r="1.42"/>
	</g>
	<g>
		<circle class="st0" cx="936.03" cy="4754.9" r="1.42"/>
		<circle class="st0" cx="1219.5" cy="4754.9" r="1.42"/>
		<circle class="st0" cx="1502.96" cy="4754.9" r="1.42"/>
		<circle class="st0" cx="1786.43" cy="4754.9" r="1.42"/>
		<circle class="st0" cx="2069.89" cy="4754.9" r="1.42"/>
		<circle class="st0" cx="2353.35" cy="4754.9" r="1.42"/>
		<circle class="st0" cx="2636.82" cy="4754.9" r="1.42"/>
		<circle class="st0" cx="2920.28" cy="4754.9" r="1.42"/>
		<circle class="st0" cx="3203.75" cy="4754.9" r="1.42"/>
		<circle class="st0" cx="3487.21" cy="4754.9" r="1.42"/>
		<circle class="st0" cx="3770.68" cy="4754.9" r="1.42"/>
		<circle class="st0" cx="4054.14" cy="4754.9" r="1.42"/>
		<circle class="st0" cx="4621.07" cy="4754.9" r="1.42"/>
		<circle class="st0" cx="4337.61" cy="4754.9" r="1.42"/>
		<circle class="st0" cx="4904.54" cy="4754.9" r="1.42"/>
		<circle class="st0" cx="5188" cy="4754.9" r="1.42"/>
		<circle class="st0" cx="5471.46" cy="4754.9" r="1.42"/>
		<circle class="st0" cx="5754.93" cy="4754.9" r="1.42"/>
	</g>
	<g>
		<circle class="st0" cx="936.03" cy="5073.79" r="1.42"/>
		<circle class="st0" cx="1219.5" cy="5073.79" r="1.42"/>
		<circle class="st0" cx="1502.96" cy="5073.79" r="1.42"/>
		<circle class="st0" cx="1786.43" cy="5073.79" r="1.42"/>
		<circle class="st0" cx="2069.89" cy="5073.79" r="1.42"/>
		<circle class="st0" cx="2353.35" cy="5073.79" r="1.42"/>
		<circle class="st0" cx="2636.82" cy="5073.79" r="1.42"/>
		<circle class="st0" cx="2920.28" cy="5073.79" r="1.42"/>
		<circle class="st0" cx="3203.75" cy="5073.79" r="1.42"/>
		<circle class="st0" cx="3487.21" cy="5073.79" r="1.42"/>
		<circle class="st0" cx="3770.68" cy="5073.79" r="1.42"/>
		<circle class="st0" cx="4054.14" cy="5073.79" r="1.42"/>
		<circle class="st0" cx="4621.07" cy="5073.79" r="1.42"/>
		<circle class="st0" cx="4337.61" cy="5073.79" r="1.42"/>
		<circle class="st0" cx="4904.54" cy="5073.79" r="1.42"/>
		<circle class="st0" cx="5188" cy="5073.79" r="1.42"/>
		<circle class="st0" cx="5471.46" cy="5073.79" r="1.42"/>
		<circle class="st0" cx="5754.93" cy="5073.79" r="1.42"/>
	</g>
	<g>
		<circle class="st0" cx="936.03" cy="5392.69" r="1.42"/>
		<circle class="st0" cx="1219.5" cy="5392.69" r="1.42"/>
		<circle class="st0" cx="1502.96" cy="5392.69" r="1.42"/>
		<circle class="st0" cx="1786.43" cy="5392.69" r="1.42"/>
		<circle class="st0" cx="2069.89" cy="5392.69" r="1.42"/>
		<circle class="st0" cx="2353.35" cy="5392.69" r="1.42"/>
		<circle class="st0" cx="2636.82" cy="5392.69" r="1.42"/>
		<circle class="st0" cx="2920.28" cy="5392.69" r="1.42"/>
		<circle class="st0" cx="3203.75" cy="5392.69" r="1.42"/>
		<circle class="st0" cx="3487.21" cy="5392.69" r="1.42"/>
		<circle class="st0" cx="3770.68" cy="5392.69" r="1.42"/>
		<circle class="st0" cx="4054.14" cy="5392.69" r="1.42"/>
		<circle class="st0" cx="4621.07" cy="5392.69" r="1.42"/>
		<circle class="st0" cx="4337.61" cy="5392.69" r="1.42"/>
		<circle class="st0" cx="4904.54" cy="5392.69" r="1.42"/>
		<circle class="st0" cx="5188" cy="5392.69" r="1.42"/>
		<circle class="st0" cx="5471.46" cy="5392.69" r="1.42"/>
		<circle class="st0" cx="5754.93" cy="5392.69" r="1.42"/>
	</g>
	<g>
		<circle class="st0" cx="936.03" cy="5711.59" r="1.42"/>
		<circle class="st0" cx="1219.5" cy="5711.59" r="1.42"/>
		<circle class="st0" cx="1502.96" cy="5711.59" r="1.42"/>
		<circle class="st0" cx="1786.43" cy="5711.59" r="1.42"/>
		<circle class="st0" cx="2069.89" cy="5711.59" r="1.42"/>
		<circle class="st0" cx="2353.35" cy="5711.59" r="1.42"/>
		<circle class="st0" cx="2636.82" cy="5711.59" r="1.42"/>
		<circle class="st0" cx="2920.28" cy="5711.59" r="1.42"/>
		<circle class="st0" cx="3203.75" cy="5711.59" r="1.42"/>
		<circle class="st0" cx="3487.21" cy="5711.59" r="1.42"/>
		<circle class="st0" cx="3770.68" cy="5711.59" r="1.42"/>
		<circle class="st0" cx="4054.14" cy="5711.59" r="1.42"/>
		<circle class="st0" cx="4621.07" cy="5711.59" r="1.42"/>
		<circle class="st0" cx="4337.61" cy="5711.59" r="1.42"/>
		<circle class="st0" cx="4904.54" cy="5711.59" r="1.42"/>
		<circle class="st0" cx="5188" cy="5711.59" r="1.42"/>
		<circle class="st0" cx="5471.46" cy="5711.59" r="1.42"/>
		<circle class="st0" cx="5754.93" cy="5711.59" r="1.42"/>
	</g>
	<g>
		<circle class="st0" cx="936.03" cy="6030.49" r="1.42"/>
		<circle class="st0" cx="1219.5" cy="6030.49" r="1.42"/>
		<circle class="st0" cx="1502.96" cy="6030.49" r="1.42"/>
		<circle class="st0" cx="1786.43" cy="6030.49" r="1.42"/>
		<circle class="st0" cx="2069.89" cy="6030.49" r="1.42"/>
		<circle class="st0" cx="2353.35" cy="6030.49" r="1.42"/>
		<circle class="st0" cx="2636.82" cy="6030.49" r="1.42"/>
		<circle class="st0" cx="2920.28" cy="6030.49" r="1.42"/>
		<circle class="st0" cx="3203.75" cy="6030.49" r="1.42"/>
		<circle class="st0" cx="3487.21" cy="6030.49" r="1.42"/>
		<circle class="st0" cx="3770.68" cy="6030.49" r="1.42"/>
		<circle class="st0" cx="4054.14" cy="6030.49" r="1.42"/>
		<circle class="st0" cx="4621.07" cy="6030.49" r="1.42"/>
		<circle class="st0" cx="4337.61" cy="6030.49" r="1.42"/>
		<circle class="st0" cx="4904.54" cy="6030.49" r="1.42"/>
		<circle class="st0" cx="5188" cy="6030.49" r="1.42"/>
		<circle class="st0" cx="5471.46" cy="6030.49" r="1.42"/>
		<circle class="st0" cx="5754.93" cy="6030.49" r="1.42"/>
	</g>
	<g>
		<circle class="st0" cx="936.03" cy="6349.38" r="1.42"/>
		<circle class="st0" cx="1219.5" cy="6349.38" r="1.42"/>
		<circle class="st0" cx="1502.96" cy="6349.38" r="1.42"/>
		<circle class="st0" cx="1786.43" cy="6349.38" r="1.42"/>
		<circle class="st0" cx="2069.89" cy="6349.38" r="1.42"/>
		<circle class="st0" cx="2353.35" cy="6349.38" r="1.42"/>
		<circle class="st0" cx="2636.82" cy="6349.38" r="1.42"/>
		<circle class="st0" cx="2920.28" cy="6349.38" r="1.42"/>
		<circle class="st0" cx="3203.75" cy="6349.38" r="1.42"/>
		<circle class="st0" cx="3487.21" cy="6349.38" r="1.42"/>
		<circle class="st0" cx="3770.68" cy="6349.38" r="1.42"/>
		<circle class="st0" cx="4054.14" cy="6349.38" r="1.42"/>
		<circle class="st0" cx="4621.07" cy="6349.38" r="1.42"/>
		<circle class="st0" cx="4337.61" cy="6349.38" r="1.42"/>
		<circle class="st0" cx="4904.54" cy="6349.38" r="1.42"/>
		<circle class="st0" cx="5188" cy="6349.38" r="1.42"/>
		<circle class="st0" cx="5471.46" cy="6349.38" r="1.42"/>
		<circle class="st0" cx="5754.93" cy="6349.38" r="1.42"/>
	</g>
	<g>
		<circle class="st0" cx="936.03" cy="6668.28" r="1.42"/>
		<circle class="st0" cx="1219.5" cy="6668.28" r="1.42"/>
		<circle class="st0" cx="1502.96" cy="6668.28" r="1.42"/>
		<circle class="st0" cx="1786.43" cy="6668.28" r="1.42"/>
		<circle class="st0" cx="2069.89" cy="6668.28" r="1.42"/>
		<circle class="st0" cx="2353.35" cy="6668.28" r="1.42"/>
		<circle class="st0" cx="2636.82" cy="6668.28" r="1.42"/>
		<circle class="st0" cx="2920.28" cy="6668.28" r="1.42"/>
		<circle class="st0" cx="3203.75" cy="6668.28" r="1.42"/>
		<circle class="st0" cx="3487.21" cy="6668.28" r="1.42"/>
		<circle class="st0" cx="3770.68" cy="6668.28" r="1.42"/>
		<circle class="st0" cx="4054.14" cy="6668.28" r="1.42"/>
		<circle class="st0" cx="4621.07" cy="6668.28" r="1.42"/>
		<circle class="st0" cx="4337.61" cy="6668.28" r="1.42"/>
		<circle class="st0" cx="4904.54" cy="6668.28" r="1.42"/>
		<circle class="st0" cx="5188" cy="6668.28" r="1.42"/>
		<circle class="st0" cx="5471.46" cy="6668.28" r="1.42"/>
		<circle class="st0" cx="5754.93" cy="6668.28" r="1.42"/>
	</g>
	<g>
		<circle class="st0" cx="936.03" cy="6987.18" r="1.42"/>
		<circle class="st0" cx="1219.5" cy="6987.18" r="1.42"/>
		<circle class="st0" cx="1502.96" cy="6987.18" r="1.42"/>
		<circle class="st0" cx="1786.43" cy="6987.18" r="1.42"/>
		<circle class="st0" cx="2069.89" cy="6987.18" r="1.42"/>
		<circle class="st0" cx="2353.35" cy="6987.18" r="1.42"/>
		<circle class="st0" cx="2636.82" cy="6987.18" r="1.42"/>
		<circle class="st0" cx="2920.28" cy="6987.18" r="1.42"/>
		<circle class="st0" cx="3203.75" cy="6987.18" r="1.42"/>
		<circle class="st0" cx="3487.21" cy="6987.18" r="1.42"/>
		<circle class="st0" cx="3770.68" cy="6987.18" r="1.42"/>
		<circle class="st0" cx="4054.14" cy="6987.18" r="1.42"/>
		<circle class="st0" cx="4621.07" cy="6987.18" r="1.42"/>
		<circle class="st0" cx="4337.61" cy="6987.18" r="1.42"/>
		<circle class="st0" cx="4904.54" cy="6987.18" r="1.42"/>
		<circle class="st0" cx="5188" cy="6987.18" r="1.42"/>
		<circle class="st0" cx="5471.46" cy="6987.18" r="1.42"/>
		<circle class="st0" cx="5754.93" cy="6987.18" r="1.42"/>
	</g>
</g>
<g>
	<g>
		<polygon class="st1" points="873.15,111.35 873.15,1.01 214.39,1.01 214.39,111.35 543.77,301.51 		"/>
	</g>
	<g>
		<g>
			<polygon class="st1" points="33.66,189.4 140.06,251.81 140.06,175.92 543.77,407.99 543.77,311.5 33.66,12.3 			"/>
		</g>
		<g>
			<polygon class="st1" points="1053.89,189.4 947.48,251.81 947.48,175.92 543.77,407.99 543.77,311.5 1053.89,12.3 			"/>
		</g>
	</g>
	<g>
		<g>
			<polygon class="st2" points="140.06,251.81 140.06,280.68 543.77,512.75 543.77,488.6 			"/>
		</g>
		<g>
			<polygon class="st2" points="947.48,251.81 947.48,280.68 543.77,512.75 543.77,488.6 			"/>
		</g>
	</g>
	<g>
		<g>
			<polygon class="st3" points="543.77,407.99 140.06,175.92 140.06,251.81 543.77,488.6 			"/>
		</g>
		<g>
			<polygon class="st3" points="543.77,407.99 947.48,175.92 947.48,251.81 543.77,488.6 			"/>
		</g>
	</g>
	<g>
		<g>
			<polygon class="st3" points="886.69,76.58 886.69,106.64 543.77,303.77 543.77,278.62 			"/>
		</g>
		<g>
			<polygon class="st3" points="200.85,76.58 200.85,106.64 543.77,303.77 543.77,278.62 			"/>
		</g>
	</g>
	<g>
		<g>
			<polygon class="st3" points="1087.39,8.1 1087.39,55.75 543.77,368.25 543.77,328.39 			"/>
		</g>
		<g>
			<polygon class="st3" points="0.16,8.1 0.16,55.75 543.77,368.25 543.77,328.39 			"/>
		</g>
	</g>
	<g>
		<polygon class="st4" points="873.15,1.01 214.39,1.01 543.77,278.62 		"/>
	</g>
	<g class="st5">
		<path class="st3" d="M462.87,77.88h3.92l16.9,37.36h-4.5l-4.35-9.8h-20.19l-4.4,9.8h-4.29L462.87,77.88z M473.2,101.68
			l-8.43-18.92l-8.48,18.92H473.2z"/>
		<path class="st3" d="M491.01,78.15h15.79c4.24,0,7.58,1.22,9.7,3.29c1.54,1.59,2.38,3.55,2.38,5.93v0.11
			c0,4.82-2.97,7.31-5.88,8.58c4.4,1.32,7.95,3.87,7.95,8.96v0.11c0,6.36-5.35,10.12-13.46,10.12h-16.48V78.15z M506.11,94.68
			c5.03,0,8.53-2.28,8.53-6.62v-0.11c0-3.66-2.92-6.04-8.21-6.04h-11.29v12.77H506.11z M507.6,111.48c5.62,0,9.11-2.49,9.11-6.62
			v-0.11c0-4.03-3.39-6.36-9.86-6.36h-11.71v13.09H507.6z"/>
		<path class="st3" d="M527.63,96.8V96.7c0-10.23,7.68-19.18,18.97-19.18c11.29,0,18.87,8.85,18.87,19.08v0.11
			c0,10.23-7.68,19.18-18.97,19.18C535.21,115.88,527.63,107.03,527.63,96.8z M561.13,96.8V96.7c0-8.43-6.15-15.32-14.63-15.32
			c-8.48,0-14.52,6.78-14.52,15.21v0.11c0,8.43,6.15,15.32,14.63,15.32C555.08,112.01,561.13,105.23,561.13,96.8z"/>
		<path class="st3" d="M573.74,99.72V78.15h4.19v21.3c0,8,4.24,12.51,11.34,12.51c6.84,0,11.18-4.13,11.18-12.24V78.15h4.19V99.4
			c0,10.81-6.2,16.43-15.47,16.43C580,115.83,573.74,110.21,573.74,99.72z"/>
		<path class="st3" d="M624.36,82.02H611.9v-3.87h29.15v3.87H628.6v33.23h-4.24V82.02z"/>
	</g>
</g>
</svg>
