<?xml version="1.0" encoding="utf-8"?>
<!-- Generator: Adobe Illustrator 23.1.0, SVG Export Plug-In . SVG Version: 6.00 Build 0)  -->
<svg version="1.1" id="Layer_1" xmlns="http://www.w3.org/2000/svg" xmlns:xlink="http://www.w3.org/1999/xlink" x="0px" y="0px"
	 viewBox="0 0 1087.23 511.74" style="enable-background:new 0 0 1087.23 511.74;" xml:space="preserve">
<style type="text/css">
	.st0{fill:#B3D334;}
	.st1{fill:#F8F6F2;}
	.st2{fill:#3F4847;}
	.st3{fill:#CADB32;}
</style>
<g>
	<g>
		<circle class="st0" cx="936.03" cy="4436" r="1.42"/>
		<circle class="st0" cx="1219.5" cy="4436" r="1.42"/>
		<circle class="st0" cx="1502.96" cy="4436" r="1.42"/>
		<circle class="st0" cx="1786.43" cy="4436" r="1.42"/>
		<circle class="st0" cx="2069.89" cy="4436" r="1.42"/>
		<circle class="st0" cx="2353.35" cy="4436" r="1.42"/>
		<circle class="st0" cx="2636.82" cy="4436" r="1.42"/>
		<circle class="st0" cx="2920.28" cy="4436" r="1.42"/>
		<circle class="st0" cx="3203.75" cy="4436" r="1.42"/>
		<circle class="st0" cx="3487.21" cy="4436" r="1.42"/>
		<circle class="st0" cx="3770.68" cy="4436" r="1.42"/>
		<circle class="st0" cx="4054.14" cy="4436" r="1.42"/>
		<circle class="st0" cx="4621.07" cy="4436" r="1.42"/>
		<circle class="st0" cx="4337.61" cy="4436" r="1.42"/>
		<circle class="st0" cx="4904.54" cy="4436" r="1.42"/>
		<circle class="st0" cx="5188" cy="4436" r="1.42"/>
		<circle class="st0" cx="5471.46" cy="4436" r="1.42"/>
		<circle class="st0" cx="5754.93" cy="4436" r="1.42"/>
	</g>
	<g>
		<circle class="st0" cx="936.03" cy="4754.9" r="1.42"/>
		<circle class="st0" cx="1219.5" cy="4754.9" r="1.42"/>
		<circle class="st0" cx="1502.96" cy="4754.9" r="1.42"/>
		<circle class="st0" cx="1786.43" cy="4754.9" r="1.42"/>
		<circle class="st0" cx="2069.89" cy="4754.9" r="1.42"/>
		<circle class="st0" cx="2353.35" cy="4754.9" r="1.42"/>
		<circle class="st0" cx="2636.82" cy="4754.9" r="1.42"/>
		<circle class="st0" cx="2920.28" cy="4754.9" r="1.42"/>
		<circle class="st0" cx="3203.75" cy="4754.9" r="1.42"/>
		<circle class="st0" cx="3487.21" cy="4754.9" r="1.42"/>
		<circle class="st0" cx="3770.68" cy="4754.9" r="1.42"/>
		<circle class="st0" cx="4054.14" cy="4754.9" r="1.42"/>
		<circle class="st0" cx="4621.07" cy="4754.9" r="1.42"/>
		<circle class="st0" cx="4337.61" cy="4754.9" r="1.42"/>
		<circle class="st0" cx="4904.54" cy="4754.9" r="1.42"/>
		<circle class="st0" cx="5188" cy="4754.9" r="1.42"/>
		<circle class="st0" cx="5471.46" cy="4754.9" r="1.42"/>
		<circle class="st0" cx="5754.93" cy="4754.9" r="1.42"/>
	</g>
	<g>
		<circle class="st0" cx="936.03" cy="5073.79" r="1.42"/>
		<circle class="st0" cx="1219.5" cy="5073.79" r="1.42"/>
		<circle class="st0" cx="1502.96" cy="5073.79" r="1.42"/>
		<circle class="st0" cx="1786.43" cy="5073.79" r="1.42"/>
		<circle class="st0" cx="2069.89" cy="5073.79" r="1.42"/>
		<circle class="st0" cx="2353.35" cy="5073.79" r="1.42"/>
		<circle class="st0" cx="2636.82" cy="5073.79" r="1.42"/>
		<circle class="st0" cx="2920.28" cy="5073.79" r="1.42"/>
		<circle class="st0" cx="3203.75" cy="5073.79" r="1.42"/>
		<circle class="st0" cx="3487.21" cy="5073.79" r="1.42"/>
		<circle class="st0" cx="3770.68" cy="5073.79" r="1.42"/>
		<circle class="st0" cx="4054.14" cy="5073.79" r="1.42"/>
		<circle class="st0" cx="4621.07" cy="5073.79" r="1.42"/>
		<circle class="st0" cx="4337.61" cy="5073.79" r="1.42"/>
		<circle class="st0" cx="4904.54" cy="5073.79" r="1.42"/>
		<circle class="st0" cx="5188" cy="5073.79" r="1.42"/>
		<circle class="st0" cx="5471.46" cy="5073.79" r="1.42"/>
		<circle class="st0" cx="5754.93" cy="5073.79" r="1.42"/>
	</g>
	<g>
		<circle class="st0" cx="936.03" cy="5392.69" r="1.42"/>
		<circle class="st0" cx="1219.5" cy="5392.69" r="1.42"/>
		<circle class="st0" cx="1502.96" cy="5392.69" r="1.42"/>
		<circle class="st0" cx="1786.43" cy="5392.69" r="1.42"/>
		<circle class="st0" cx="2069.89" cy="5392.69" r="1.42"/>
		<circle class="st0" cx="2353.35" cy="5392.69" r="1.42"/>
		<circle class="st0" cx="2636.82" cy="5392.69" r="1.42"/>
		<circle class="st0" cx="2920.28" cy="5392.69" r="1.42"/>
		<circle class="st0" cx="3203.75" cy="5392.69" r="1.42"/>
		<circle class="st0" cx="3487.21" cy="5392.69" r="1.42"/>
		<circle class="st0" cx="3770.68" cy="5392.69" r="1.42"/>
		<circle class="st0" cx="4054.14" cy="5392.69" r="1.42"/>
		<circle class="st0" cx="4621.07" cy="5392.69" r="1.42"/>
		<circle class="st0" cx="4337.61" cy="5392.69" r="1.42"/>
		<circle class="st0" cx="4904.54" cy="5392.69" r="1.42"/>
		<circle class="st0" cx="5188" cy="5392.69" r="1.42"/>
		<circle class="st0" cx="5471.46" cy="5392.69" r="1.42"/>
		<circle class="st0" cx="5754.93" cy="5392.69" r="1.42"/>
	</g>
	<g>
		<circle class="st0" cx="936.03" cy="5711.59" r="1.42"/>
		<circle class="st0" cx="1219.5" cy="5711.59" r="1.42"/>
		<circle class="st0" cx="1502.96" cy="5711.59" r="1.42"/>
		<circle class="st0" cx="1786.43" cy="5711.59" r="1.42"/>
		<circle class="st0" cx="2069.89" cy="5711.59" r="1.42"/>
		<circle class="st0" cx="2353.35" cy="5711.59" r="1.42"/>
		<circle class="st0" cx="2636.82" cy="5711.59" r="1.42"/>
		<circle class="st0" cx="2920.28" cy="5711.59" r="1.42"/>
		<circle class="st0" cx="3203.75" cy="5711.59" r="1.42"/>
		<circle class="st0" cx="3487.21" cy="5711.59" r="1.42"/>
		<circle class="st0" cx="3770.68" cy="5711.59" r="1.42"/>
		<circle class="st0" cx="4054.14" cy="5711.59" r="1.42"/>
		<circle class="st0" cx="4621.07" cy="5711.59" r="1.42"/>
		<circle class="st0" cx="4337.61" cy="5711.59" r="1.42"/>
		<circle class="st0" cx="4904.54" cy="5711.59" r="1.42"/>
		<circle class="st0" cx="5188" cy="5711.59" r="1.42"/>
		<circle class="st0" cx="5471.46" cy="5711.59" r="1.42"/>
		<circle class="st0" cx="5754.93" cy="5711.59" r="1.42"/>
	</g>
	<g>
		<circle class="st0" cx="936.03" cy="6030.49" r="1.42"/>
		<circle class="st0" cx="1219.5" cy="6030.49" r="1.42"/>
		<circle class="st0" cx="1502.96" cy="6030.49" r="1.42"/>
		<circle class="st0" cx="1786.43" cy="6030.49" r="1.42"/>
		<circle class="st0" cx="2069.89" cy="6030.49" r="1.42"/>
		<circle class="st0" cx="2353.35" cy="6030.49" r="1.42"/>
		<circle class="st0" cx="2636.82" cy="6030.49" r="1.42"/>
		<circle class="st0" cx="2920.28" cy="6030.49" r="1.42"/>
		<circle class="st0" cx="3203.75" cy="6030.49" r="1.42"/>
		<circle class="st0" cx="3487.21" cy="6030.49" r="1.42"/>
		<circle class="st0" cx="3770.68" cy="6030.49" r="1.42"/>
		<circle class="st0" cx="4054.14" cy="6030.49" r="1.42"/>
		<circle class="st0" cx="4621.07" cy="6030.49" r="1.42"/>
		<circle class="st0" cx="4337.61" cy="6030.49" r="1.42"/>
		<circle class="st0" cx="4904.54" cy="6030.49" r="1.42"/>
		<circle class="st0" cx="5188" cy="6030.49" r="1.42"/>
		<circle class="st0" cx="5471.46" cy="6030.49" r="1.42"/>
		<circle class="st0" cx="5754.93" cy="6030.49" r="1.42"/>
	</g>
	<g>
		<circle class="st0" cx="936.03" cy="6349.38" r="1.42"/>
		<circle class="st0" cx="1219.5" cy="6349.38" r="1.42"/>
		<circle class="st0" cx="1502.96" cy="6349.38" r="1.42"/>
		<circle class="st0" cx="1786.43" cy="6349.38" r="1.42"/>
		<circle class="st0" cx="2069.89" cy="6349.38" r="1.42"/>
		<circle class="st0" cx="2353.35" cy="6349.38" r="1.42"/>
		<circle class="st0" cx="2636.82" cy="6349.38" r="1.42"/>
		<circle class="st0" cx="2920.28" cy="6349.38" r="1.42"/>
		<circle class="st0" cx="3203.75" cy="6349.38" r="1.42"/>
		<circle class="st0" cx="3487.21" cy="6349.38" r="1.42"/>
		<circle class="st0" cx="3770.68" cy="6349.38" r="1.42"/>
		<circle class="st0" cx="4054.14" cy="6349.38" r="1.42"/>
		<circle class="st0" cx="4621.07" cy="6349.38" r="1.42"/>
		<circle class="st0" cx="4337.61" cy="6349.38" r="1.42"/>
		<circle class="st0" cx="4904.54" cy="6349.38" r="1.42"/>
		<circle class="st0" cx="5188" cy="6349.38" r="1.42"/>
		<circle class="st0" cx="5471.46" cy="6349.38" r="1.42"/>
		<circle class="st0" cx="5754.93" cy="6349.38" r="1.42"/>
	</g>
	<g>
		<circle class="st0" cx="936.03" cy="6668.28" r="1.42"/>
		<circle class="st0" cx="1219.5" cy="6668.28" r="1.42"/>
		<circle class="st0" cx="1502.96" cy="6668.28" r="1.42"/>
		<circle class="st0" cx="1786.43" cy="6668.28" r="1.42"/>
		<circle class="st0" cx="2069.89" cy="6668.28" r="1.42"/>
		<circle class="st0" cx="2353.35" cy="6668.28" r="1.42"/>
		<circle class="st0" cx="2636.82" cy="6668.28" r="1.42"/>
		<circle class="st0" cx="2920.28" cy="6668.28" r="1.42"/>
		<circle class="st0" cx="3203.75" cy="6668.28" r="1.42"/>
		<circle class="st0" cx="3487.21" cy="6668.28" r="1.42"/>
		<circle class="st0" cx="3770.68" cy="6668.28" r="1.42"/>
		<circle class="st0" cx="4054.14" cy="6668.28" r="1.42"/>
		<circle class="st0" cx="4621.07" cy="6668.28" r="1.42"/>
		<circle class="st0" cx="4337.61" cy="6668.28" r="1.42"/>
		<circle class="st0" cx="4904.54" cy="6668.28" r="1.42"/>
		<circle class="st0" cx="5188" cy="6668.28" r="1.42"/>
		<circle class="st0" cx="5471.46" cy="6668.28" r="1.42"/>
		<circle class="st0" cx="5754.93" cy="6668.28" r="1.42"/>
	</g>
	<g>
		<circle class="st0" cx="936.03" cy="6987.18" r="1.42"/>
		<circle class="st0" cx="1219.5" cy="6987.18" r="1.42"/>
		<circle class="st0" cx="1502.96" cy="6987.18" r="1.42"/>
		<circle class="st0" cx="1786.43" cy="6987.18" r="1.42"/>
		<circle class="st0" cx="2069.89" cy="6987.18" r="1.42"/>
		<circle class="st0" cx="2353.35" cy="6987.18" r="1.42"/>
		<circle class="st0" cx="2636.82" cy="6987.18" r="1.42"/>
		<circle class="st0" cx="2920.28" cy="6987.18" r="1.42"/>
		<circle class="st0" cx="3203.75" cy="6987.18" r="1.42"/>
		<circle class="st0" cx="3487.21" cy="6987.18" r="1.42"/>
		<circle class="st0" cx="3770.68" cy="6987.18" r="1.42"/>
		<circle class="st0" cx="4054.14" cy="6987.18" r="1.42"/>
		<circle class="st0" cx="4621.07" cy="6987.18" r="1.42"/>
		<circle class="st0" cx="4337.61" cy="6987.18" r="1.42"/>
		<circle class="st0" cx="4904.54" cy="6987.18" r="1.42"/>
		<circle class="st0" cx="5188" cy="6987.18" r="1.42"/>
		<circle class="st0" cx="5471.46" cy="6987.18" r="1.42"/>
		<circle class="st0" cx="5754.93" cy="6987.18" r="1.42"/>
	</g>
</g>
<g>
	<polygon class="st0" points="872.99,110.34 872.99,0 214.23,0 214.23,110.34 543.61,300.5 	"/>
	<g>
		<polygon class="st0" points="33.5,188.39 139.9,250.8 139.9,174.91 543.61,406.98 543.61,310.49 33.5,11.29 		"/>
		<polygon class="st0" points="1053.73,188.39 947.33,250.8 947.33,174.91 543.61,406.98 543.61,310.49 1053.73,11.29 		"/>
	</g>
	<g>
		<polygon class="st1" points="139.9,250.8 139.9,279.67 543.61,511.74 543.61,487.59 		"/>
		<polygon class="st1" points="947.33,250.8 947.33,279.67 543.61,511.74 543.61,487.59 		"/>
	</g>
	<g>
		<polygon class="st2" points="543.61,406.98 139.9,174.91 139.9,250.8 543.61,487.59 		"/>
		<polygon class="st2" points="543.61,406.98 947.33,174.91 947.33,250.8 543.61,487.59 		"/>
	</g>
	<g>
		<polygon class="st2" points="886.53,75.57 886.53,105.63 543.61,302.76 543.61,277.61 		"/>
		<polygon class="st2" points="200.7,75.57 200.7,105.63 543.61,302.76 543.61,277.61 		"/>
	</g>
	<g>
		<polygon class="st2" points="1087.23,7.09 1087.23,54.74 543.61,367.24 543.61,327.38 		"/>
		<polygon class="st2" points="0,7.09 0,54.74 543.61,367.24 543.61,327.38 		"/>
	</g>
	<polygon class="st3" points="872.99,0 214.23,0 543.61,277.61 	"/>
</g>
</svg>
