<?xml version="1.0" encoding="utf-8"?>
<!-- Generator: Adobe Illustrator 23.1.0, SVG Export Plug-In . SVG Version: 6.00 Build 0)  -->
<svg version="1.1" id="Layer_1" xmlns="http://www.w3.org/2000/svg" xmlns:xlink="http://www.w3.org/1999/xlink" x="0px" y="0px"
	 viewBox="0 0 136.58 136.58" style="enable-background:new 0 0 136.58 136.58;" xml:space="preserve">
<style type="text/css">
	.st0{fill:#F8F6F2;}
	.st1{fill:#3F4847;}
</style>
<g>
	<g>
		<path class="st0" d="M136.58,113.24c0,12.89-10.45,23.34-23.34,23.34h-89.9C10.45,136.58,0,126.13,0,113.24v-89.9
			C0,10.45,10.45,0,23.34,0h89.9c12.89,0,23.34,10.45,23.34,23.34V113.24z"/>
	</g>
	<g>
		<g>
			<path class="st1" d="M68.29,120.59c-9.15,0-18.13-2.42-26.08-7.02l-20.38,7.02l4.19-21.58C19.45,90.01,16,79.43,16,68.29
				C16,39.46,39.45,16,68.29,16c28.84,0,52.3,23.46,52.3,52.29C120.59,97.13,97.13,120.59,68.29,120.59z M43.15,105.01l1.58,0.99
				c7.1,4.45,15.25,6.81,23.57,6.81c24.55,0,44.52-19.97,44.52-44.52c0-24.55-19.97-44.51-44.52-44.51
				c-24.55,0-44.51,19.97-44.51,44.51c0,9.99,3.27,19.45,9.46,27.36l1.09,1.4l-2.29,11.79L43.15,105.01z"/>
		</g>
		<path class="st1" d="M41.89,48.2c0,0,3.07-5.36,5.57-5.67c2.5-0.31,5.72-0.31,6.59,1.33c0.87,1.63,4.75,11.14,4.75,11.14
			s0.66,1.64-0.36,3.22c-1.02,1.58-3.32,3.88-3.32,3.88s-1.28,1.64,0,3.37c1.28,1.74,3.26,4.93,7.36,9.03
			c4.09,4.1,11.95,7.02,11.95,7.02s1.12,0.15,1.84-0.56c0.71-0.72,4.6-5.57,4.6-5.57s1.25-1.61,3.32-0.66
			c2.07,0.95,11.03,5.41,11.03,5.41s1.05,0.38,1.05,1.97c0,1.59-0.64,5.46-1.95,6.77c-1.31,1.31-5.14,5.35-10.9,5.35
			c-5.76,0-19.46-4.68-26.77-11.99c-7.3-7.31-13.79-14.71-15.32-21.46C39.8,54.02,40,50.97,41.89,48.2z"/>
	</g>
</g>
</svg>
