<?xml version="1.0" encoding="utf-8"?>
<!-- Generator: Adobe Illustrator 23.1.0, SVG Export Plug-In . SVG Version: 6.00 Build 0)  -->
<svg version="1.1" id="Layer_1" xmlns="http://www.w3.org/2000/svg" xmlns:xlink="http://www.w3.org/1999/xlink" x="0px" y="0px"
	 viewBox="0 0 4878.43 2610.71" style="enable-background:new 0 0 4878.43 2610.71;" xml:space="preserve">
<style type="text/css">
	.st0{fill:#B3D334;}
</style>
<g>
	<g>
		<circle class="st0" cx="2831.63" cy="5485.48" r="1.42"/>
		<circle class="st0" cx="3115.1" cy="5485.48" r="1.42"/>
		<circle class="st0" cx="3398.56" cy="5485.48" r="1.42"/>
		<circle class="st0" cx="3682.02" cy="5485.48" r="1.42"/>
		<circle class="st0" cx="3965.49" cy="5485.48" r="1.42"/>
		<circle class="st0" cx="4248.95" cy="5485.48" r="1.42"/>
		<circle class="st0" cx="4532.42" cy="5485.48" r="1.42"/>
		<circle class="st0" cx="4815.88" cy="5485.48" r="1.42"/>
		<circle class="st0" cx="5099.35" cy="5485.48" r="1.42"/>
		<circle class="st0" cx="5382.81" cy="5485.48" r="1.42"/>
		<circle class="st0" cx="5666.28" cy="5485.48" r="1.42"/>
		<circle class="st0" cx="5949.74" cy="5485.48" r="1.42"/>
		<circle class="st0" cx="6516.67" cy="5485.48" r="1.42"/>
		<circle class="st0" cx="6233.21" cy="5485.48" r="1.42"/>
		<circle class="st0" cx="6800.13" cy="5485.48" r="1.42"/>
		<circle class="st0" cx="7083.6" cy="5485.48" r="1.42"/>
		<circle class="st0" cx="7367.06" cy="5485.48" r="1.42"/>
		<circle class="st0" cx="7650.53" cy="5485.48" r="1.42"/>
	</g>
	<g>
		<circle class="st0" cx="2831.63" cy="5804.38" r="1.42"/>
		<circle class="st0" cx="3115.1" cy="5804.38" r="1.42"/>
		<circle class="st0" cx="3398.56" cy="5804.38" r="1.42"/>
		<circle class="st0" cx="3682.02" cy="5804.38" r="1.42"/>
		<circle class="st0" cx="3965.49" cy="5804.38" r="1.42"/>
		<circle class="st0" cx="4248.95" cy="5804.38" r="1.42"/>
		<circle class="st0" cx="4532.42" cy="5804.38" r="1.42"/>
		<circle class="st0" cx="4815.88" cy="5804.38" r="1.42"/>
		<circle class="st0" cx="5099.35" cy="5804.38" r="1.42"/>
		<circle class="st0" cx="5382.81" cy="5804.38" r="1.42"/>
		<circle class="st0" cx="5666.28" cy="5804.38" r="1.42"/>
		<circle class="st0" cx="5949.74" cy="5804.38" r="1.42"/>
		<circle class="st0" cx="6516.67" cy="5804.38" r="1.42"/>
		<circle class="st0" cx="6233.21" cy="5804.38" r="1.42"/>
		<circle class="st0" cx="6800.13" cy="5804.38" r="1.42"/>
		<circle class="st0" cx="7083.6" cy="5804.38" r="1.42"/>
		<circle class="st0" cx="7367.06" cy="5804.38" r="1.42"/>
		<circle class="st0" cx="7650.53" cy="5804.38" r="1.42"/>
	</g>
	<g>
		<circle class="st0" cx="2831.63" cy="6123.28" r="1.42"/>
		<circle class="st0" cx="3115.1" cy="6123.28" r="1.42"/>
		<circle class="st0" cx="3398.56" cy="6123.28" r="1.42"/>
		<circle class="st0" cx="3682.02" cy="6123.28" r="1.42"/>
		<circle class="st0" cx="3965.49" cy="6123.28" r="1.42"/>
		<circle class="st0" cx="4248.95" cy="6123.28" r="1.42"/>
		<circle class="st0" cx="4532.42" cy="6123.28" r="1.42"/>
		<circle class="st0" cx="4815.88" cy="6123.28" r="1.42"/>
		<circle class="st0" cx="5099.35" cy="6123.28" r="1.42"/>
		<circle class="st0" cx="5382.81" cy="6123.28" r="1.42"/>
		<circle class="st0" cx="5666.28" cy="6123.28" r="1.42"/>
		<circle class="st0" cx="5949.74" cy="6123.28" r="1.42"/>
		<circle class="st0" cx="6516.67" cy="6123.28" r="1.42"/>
		<circle class="st0" cx="6233.21" cy="6123.28" r="1.42"/>
		<circle class="st0" cx="6800.13" cy="6123.28" r="1.42"/>
		<circle class="st0" cx="7083.6" cy="6123.28" r="1.42"/>
		<circle class="st0" cx="7367.06" cy="6123.28" r="1.42"/>
		<circle class="st0" cx="7650.53" cy="6123.28" r="1.42"/>
	</g>
	<g>
		<circle class="st0" cx="2831.63" cy="6442.17" r="1.42"/>
		<circle class="st0" cx="3115.1" cy="6442.17" r="1.42"/>
		<circle class="st0" cx="3398.56" cy="6442.17" r="1.42"/>
		<circle class="st0" cx="3682.02" cy="6442.17" r="1.42"/>
		<circle class="st0" cx="3965.49" cy="6442.17" r="1.42"/>
		<circle class="st0" cx="4248.95" cy="6442.17" r="1.42"/>
		<circle class="st0" cx="4532.42" cy="6442.17" r="1.42"/>
		<circle class="st0" cx="4815.88" cy="6442.17" r="1.42"/>
		<circle class="st0" cx="5099.35" cy="6442.17" r="1.42"/>
		<circle class="st0" cx="5382.81" cy="6442.17" r="1.42"/>
		<circle class="st0" cx="5666.28" cy="6442.17" r="1.42"/>
		<circle class="st0" cx="5949.74" cy="6442.17" r="1.42"/>
		<circle class="st0" cx="6516.67" cy="6442.17" r="1.42"/>
		<circle class="st0" cx="6233.21" cy="6442.17" r="1.42"/>
		<circle class="st0" cx="6800.13" cy="6442.17" r="1.42"/>
		<circle class="st0" cx="7083.6" cy="6442.17" r="1.42"/>
		<circle class="st0" cx="7367.06" cy="6442.17" r="1.42"/>
		<circle class="st0" cx="7650.53" cy="6442.17" r="1.42"/>
	</g>
	<g>
		<circle class="st0" cx="2831.63" cy="6761.07" r="1.42"/>
		<circle class="st0" cx="3115.1" cy="6761.07" r="1.42"/>
		<circle class="st0" cx="3398.56" cy="6761.07" r="1.42"/>
		<circle class="st0" cx="3682.02" cy="6761.07" r="1.42"/>
		<circle class="st0" cx="3965.49" cy="6761.07" r="1.42"/>
		<circle class="st0" cx="4248.95" cy="6761.07" r="1.42"/>
		<circle class="st0" cx="4532.42" cy="6761.07" r="1.42"/>
		<circle class="st0" cx="4815.88" cy="6761.07" r="1.42"/>
		<circle class="st0" cx="5099.35" cy="6761.07" r="1.42"/>
		<circle class="st0" cx="5382.81" cy="6761.07" r="1.42"/>
		<circle class="st0" cx="5666.28" cy="6761.07" r="1.42"/>
		<circle class="st0" cx="5949.74" cy="6761.07" r="1.42"/>
		<circle class="st0" cx="6516.67" cy="6761.07" r="1.42"/>
		<circle class="st0" cx="6233.21" cy="6761.07" r="1.42"/>
		<circle class="st0" cx="6800.13" cy="6761.07" r="1.42"/>
		<circle class="st0" cx="7083.6" cy="6761.07" r="1.42"/>
		<circle class="st0" cx="7367.06" cy="6761.07" r="1.42"/>
		<circle class="st0" cx="7650.53" cy="6761.07" r="1.42"/>
	</g>
	<g>
		<circle class="st0" cx="2831.63" cy="7079.97" r="1.42"/>
		<circle class="st0" cx="3115.1" cy="7079.97" r="1.42"/>
		<circle class="st0" cx="3398.56" cy="7079.97" r="1.42"/>
		<circle class="st0" cx="3682.02" cy="7079.97" r="1.42"/>
		<circle class="st0" cx="3965.49" cy="7079.97" r="1.42"/>
		<circle class="st0" cx="4248.95" cy="7079.97" r="1.42"/>
		<circle class="st0" cx="4532.42" cy="7079.97" r="1.42"/>
		<circle class="st0" cx="4815.88" cy="7079.97" r="1.42"/>
		<circle class="st0" cx="5099.35" cy="7079.97" r="1.42"/>
		<circle class="st0" cx="5382.81" cy="7079.97" r="1.42"/>
		<circle class="st0" cx="5666.28" cy="7079.97" r="1.42"/>
		<circle class="st0" cx="5949.74" cy="7079.97" r="1.42"/>
		<circle class="st0" cx="6516.67" cy="7079.97" r="1.42"/>
		<circle class="st0" cx="6233.21" cy="7079.97" r="1.42"/>
		<circle class="st0" cx="6800.13" cy="7079.97" r="1.42"/>
		<circle class="st0" cx="7083.6" cy="7079.97" r="1.42"/>
		<circle class="st0" cx="7367.06" cy="7079.97" r="1.42"/>
		<circle class="st0" cx="7650.53" cy="7079.97" r="1.42"/>
	</g>
	<g>
		<circle class="st0" cx="2831.63" cy="7398.87" r="1.42"/>
		<circle class="st0" cx="3115.1" cy="7398.87" r="1.42"/>
		<circle class="st0" cx="3398.56" cy="7398.87" r="1.42"/>
		<circle class="st0" cx="3682.02" cy="7398.87" r="1.42"/>
		<circle class="st0" cx="3965.49" cy="7398.87" r="1.42"/>
		<circle class="st0" cx="4248.95" cy="7398.87" r="1.42"/>
		<circle class="st0" cx="4532.42" cy="7398.87" r="1.42"/>
		<circle class="st0" cx="4815.88" cy="7398.87" r="1.42"/>
		<circle class="st0" cx="5099.35" cy="7398.87" r="1.42"/>
		<circle class="st0" cx="5382.81" cy="7398.87" r="1.42"/>
		<circle class="st0" cx="5666.28" cy="7398.87" r="1.42"/>
		<circle class="st0" cx="5949.74" cy="7398.87" r="1.42"/>
		<circle class="st0" cx="6516.67" cy="7398.87" r="1.42"/>
		<circle class="st0" cx="6233.21" cy="7398.87" r="1.42"/>
		<circle class="st0" cx="6800.13" cy="7398.87" r="1.42"/>
		<circle class="st0" cx="7083.6" cy="7398.87" r="1.42"/>
		<circle class="st0" cx="7367.06" cy="7398.87" r="1.42"/>
		<circle class="st0" cx="7650.53" cy="7398.87" r="1.42"/>
	</g>
	<g>
		<circle class="st0" cx="2831.63" cy="7717.76" r="1.42"/>
		<circle class="st0" cx="3115.1" cy="7717.76" r="1.42"/>
		<circle class="st0" cx="3398.56" cy="7717.76" r="1.42"/>
		<circle class="st0" cx="3682.02" cy="7717.76" r="1.42"/>
		<circle class="st0" cx="3965.49" cy="7717.76" r="1.42"/>
		<circle class="st0" cx="4248.95" cy="7717.76" r="1.42"/>
		<circle class="st0" cx="4532.42" cy="7717.76" r="1.42"/>
		<circle class="st0" cx="4815.88" cy="7717.76" r="1.42"/>
		<circle class="st0" cx="5099.35" cy="7717.76" r="1.42"/>
		<circle class="st0" cx="5382.81" cy="7717.76" r="1.42"/>
		<circle class="st0" cx="5666.28" cy="7717.76" r="1.42"/>
		<circle class="st0" cx="5949.74" cy="7717.76" r="1.42"/>
		<circle class="st0" cx="6516.67" cy="7717.76" r="1.42"/>
		<circle class="st0" cx="6233.21" cy="7717.76" r="1.42"/>
		<circle class="st0" cx="6800.13" cy="7717.76" r="1.42"/>
		<circle class="st0" cx="7083.6" cy="7717.76" r="1.42"/>
		<circle class="st0" cx="7367.06" cy="7717.76" r="1.42"/>
		<circle class="st0" cx="7650.53" cy="7717.76" r="1.42"/>
	</g>
	<g>
		<circle class="st0" cx="2831.63" cy="8036.66" r="1.42"/>
		<circle class="st0" cx="3115.1" cy="8036.66" r="1.42"/>
		<circle class="st0" cx="3398.56" cy="8036.66" r="1.42"/>
		<circle class="st0" cx="3682.02" cy="8036.66" r="1.42"/>
		<circle class="st0" cx="3965.49" cy="8036.66" r="1.42"/>
		<circle class="st0" cx="4248.95" cy="8036.66" r="1.42"/>
		<circle class="st0" cx="4532.42" cy="8036.66" r="1.42"/>
		<circle class="st0" cx="4815.88" cy="8036.66" r="1.42"/>
		<circle class="st0" cx="5099.35" cy="8036.66" r="1.42"/>
		<circle class="st0" cx="5382.81" cy="8036.66" r="1.42"/>
		<circle class="st0" cx="5666.28" cy="8036.66" r="1.42"/>
		<circle class="st0" cx="5949.74" cy="8036.66" r="1.42"/>
		<circle class="st0" cx="6516.67" cy="8036.66" r="1.42"/>
		<circle class="st0" cx="6233.21" cy="8036.66" r="1.42"/>
		<circle class="st0" cx="6800.13" cy="8036.66" r="1.42"/>
		<circle class="st0" cx="7083.6" cy="8036.66" r="1.42"/>
		<circle class="st0" cx="7367.06" cy="8036.66" r="1.42"/>
		<circle class="st0" cx="7650.53" cy="8036.66" r="1.42"/>
	</g>
</g>
<g>
	<g>
		<circle class="st0" cx="29.76" cy="29.76" r="1.42"/>
		<circle class="st0" cx="313.23" cy="29.76" r="1.42"/>
		<circle class="st0" cx="596.69" cy="29.76" r="1.42"/>
		<circle class="st0" cx="880.16" cy="29.76" r="1.42"/>
		<circle class="st0" cx="1163.62" cy="29.76" r="1.42"/>
		<circle class="st0" cx="1447.09" cy="29.76" r="1.42"/>
		<circle class="st0" cx="1730.55" cy="29.76" r="1.42"/>
		<circle class="st0" cx="2014.02" cy="29.76" r="1.42"/>
		<circle class="st0" cx="2297.48" cy="29.76" r="1.42"/>
		<circle class="st0" cx="2580.94" cy="29.76" r="1.42"/>
		<circle class="st0" cx="2864.41" cy="29.76" r="1.42"/>
		<circle class="st0" cx="3147.87" cy="29.76" r="1.42"/>
		<circle class="st0" cx="3714.8" cy="29.76" r="1.42"/>
		<circle class="st0" cx="3431.34" cy="29.76" r="1.42"/>
		<circle class="st0" cx="3998.27" cy="29.76" r="1.42"/>
		<circle class="st0" cx="4281.73" cy="29.76" r="1.42"/>
		<circle class="st0" cx="4565.2" cy="29.76" r="1.42"/>
		<circle class="st0" cx="4848.66" cy="29.76" r="1.42"/>
	</g>
	<g>
		<circle class="st0" cx="29.76" cy="348.66" r="1.42"/>
		<circle class="st0" cx="313.23" cy="348.66" r="1.42"/>
		<circle class="st0" cx="596.69" cy="348.66" r="1.42"/>
		<circle class="st0" cx="880.16" cy="348.66" r="1.42"/>
		<circle class="st0" cx="1163.62" cy="348.66" r="1.42"/>
		<circle class="st0" cx="1447.09" cy="348.66" r="1.42"/>
		<circle class="st0" cx="1730.55" cy="348.66" r="1.42"/>
		<circle class="st0" cx="2014.02" cy="348.66" r="1.42"/>
		<circle class="st0" cx="2297.48" cy="348.66" r="1.42"/>
		<circle class="st0" cx="2580.94" cy="348.66" r="1.42"/>
		<circle class="st0" cx="2864.41" cy="348.66" r="1.42"/>
		<circle class="st0" cx="3147.87" cy="348.66" r="1.42"/>
		<circle class="st0" cx="3714.8" cy="348.66" r="1.42"/>
		<circle class="st0" cx="3431.34" cy="348.66" r="1.42"/>
		<circle class="st0" cx="3998.27" cy="348.66" r="1.42"/>
		<circle class="st0" cx="4281.73" cy="348.66" r="1.42"/>
		<circle class="st0" cx="4565.2" cy="348.66" r="1.42"/>
		<circle class="st0" cx="4848.66" cy="348.66" r="1.42"/>
	</g>
	<g>
		<circle class="st0" cx="29.76" cy="667.56" r="1.42"/>
		<circle class="st0" cx="313.23" cy="667.56" r="1.42"/>
		<circle class="st0" cx="596.69" cy="667.56" r="1.42"/>
		<circle class="st0" cx="880.16" cy="667.56" r="1.42"/>
		<circle class="st0" cx="1163.62" cy="667.56" r="1.42"/>
		<circle class="st0" cx="1447.09" cy="667.56" r="1.42"/>
		<circle class="st0" cx="1730.55" cy="667.56" r="1.42"/>
		<circle class="st0" cx="2014.02" cy="667.56" r="1.42"/>
		<circle class="st0" cx="2297.48" cy="667.56" r="1.42"/>
		<circle class="st0" cx="2580.94" cy="667.56" r="1.42"/>
		<circle class="st0" cx="2864.41" cy="667.56" r="1.42"/>
		<circle class="st0" cx="3147.87" cy="667.56" r="1.42"/>
		<circle class="st0" cx="3714.8" cy="667.56" r="1.42"/>
		<circle class="st0" cx="3431.34" cy="667.56" r="1.42"/>
		<circle class="st0" cx="3998.27" cy="667.56" r="1.42"/>
		<circle class="st0" cx="4281.73" cy="667.56" r="1.42"/>
		<circle class="st0" cx="4565.2" cy="667.56" r="1.42"/>
		<circle class="st0" cx="4848.66" cy="667.56" r="1.42"/>
	</g>
	<g>
		<circle class="st0" cx="29.76" cy="986.46" r="1.42"/>
		<circle class="st0" cx="313.23" cy="986.46" r="1.42"/>
		<circle class="st0" cx="596.69" cy="986.46" r="1.42"/>
		<circle class="st0" cx="880.16" cy="986.46" r="1.42"/>
		<circle class="st0" cx="1163.62" cy="986.46" r="1.42"/>
		<circle class="st0" cx="1447.09" cy="986.46" r="1.42"/>
		<circle class="st0" cx="1730.55" cy="986.46" r="1.42"/>
		<circle class="st0" cx="2014.02" cy="986.46" r="1.42"/>
		<circle class="st0" cx="2297.48" cy="986.46" r="1.42"/>
		<circle class="st0" cx="2580.94" cy="986.46" r="1.42"/>
		<circle class="st0" cx="2864.41" cy="986.46" r="1.42"/>
		<circle class="st0" cx="3147.87" cy="986.46" r="1.42"/>
		<circle class="st0" cx="3714.8" cy="986.46" r="1.42"/>
		<circle class="st0" cx="3431.34" cy="986.46" r="1.42"/>
		<circle class="st0" cx="3998.27" cy="986.46" r="1.42"/>
		<circle class="st0" cx="4281.73" cy="986.46" r="1.42"/>
		<circle class="st0" cx="4565.2" cy="986.46" r="1.42"/>
		<circle class="st0" cx="4848.66" cy="986.46" r="1.42"/>
	</g>
	<g>
		<circle class="st0" cx="29.76" cy="1305.35" r="1.42"/>
		<circle class="st0" cx="313.23" cy="1305.35" r="1.42"/>
		<circle class="st0" cx="596.69" cy="1305.35" r="1.42"/>
		<circle class="st0" cx="880.16" cy="1305.35" r="1.42"/>
		<circle class="st0" cx="1163.62" cy="1305.35" r="1.42"/>
		<circle class="st0" cx="1447.09" cy="1305.35" r="1.42"/>
		<circle class="st0" cx="1730.55" cy="1305.35" r="1.42"/>
		<circle class="st0" cx="2014.02" cy="1305.35" r="1.42"/>
		<circle class="st0" cx="2297.48" cy="1305.35" r="1.42"/>
		<circle class="st0" cx="2580.94" cy="1305.35" r="1.42"/>
		<circle class="st0" cx="2864.41" cy="1305.35" r="1.42"/>
		<circle class="st0" cx="3147.87" cy="1305.35" r="1.42"/>
		<circle class="st0" cx="3714.8" cy="1305.35" r="1.42"/>
		<circle class="st0" cx="3431.34" cy="1305.35" r="1.42"/>
		<circle class="st0" cx="3998.27" cy="1305.35" r="1.42"/>
		<circle class="st0" cx="4281.73" cy="1305.35" r="1.42"/>
		<circle class="st0" cx="4565.2" cy="1305.35" r="1.42"/>
		<circle class="st0" cx="4848.66" cy="1305.35" r="1.42"/>
	</g>
	<g>
		<circle class="st0" cx="29.76" cy="1624.25" r="1.42"/>
		<circle class="st0" cx="313.23" cy="1624.25" r="1.42"/>
		<circle class="st0" cx="596.69" cy="1624.25" r="1.42"/>
		<circle class="st0" cx="880.16" cy="1624.25" r="1.42"/>
		<circle class="st0" cx="1163.62" cy="1624.25" r="1.42"/>
		<circle class="st0" cx="1447.09" cy="1624.25" r="1.42"/>
		<circle class="st0" cx="1730.55" cy="1624.25" r="1.42"/>
		<circle class="st0" cx="2014.02" cy="1624.25" r="1.42"/>
		<circle class="st0" cx="2297.48" cy="1624.25" r="1.42"/>
		<circle class="st0" cx="2580.94" cy="1624.25" r="1.42"/>
		<circle class="st0" cx="2864.41" cy="1624.25" r="1.42"/>
		<circle class="st0" cx="3147.87" cy="1624.25" r="1.42"/>
		<circle class="st0" cx="3714.8" cy="1624.25" r="1.42"/>
		<circle class="st0" cx="3431.34" cy="1624.25" r="1.42"/>
		<circle class="st0" cx="3998.27" cy="1624.25" r="1.42"/>
		<circle class="st0" cx="4281.73" cy="1624.25" r="1.42"/>
		<circle class="st0" cx="4565.2" cy="1624.25" r="1.42"/>
		<circle class="st0" cx="4848.66" cy="1624.25" r="1.42"/>
	</g>
	<g>
		<circle class="st0" cx="29.76" cy="1943.15" r="1.42"/>
		<circle class="st0" cx="313.23" cy="1943.15" r="1.42"/>
		<circle class="st0" cx="596.69" cy="1943.15" r="1.42"/>
		<circle class="st0" cx="880.16" cy="1943.15" r="1.42"/>
		<circle class="st0" cx="1163.62" cy="1943.15" r="1.42"/>
		<circle class="st0" cx="1447.09" cy="1943.15" r="1.42"/>
		<circle class="st0" cx="1730.55" cy="1943.15" r="1.42"/>
		<circle class="st0" cx="2014.02" cy="1943.15" r="1.42"/>
		<circle class="st0" cx="2297.48" cy="1943.15" r="1.42"/>
		<circle class="st0" cx="2580.94" cy="1943.15" r="1.42"/>
		<circle class="st0" cx="2864.41" cy="1943.15" r="1.42"/>
		<circle class="st0" cx="3147.87" cy="1943.15" r="1.42"/>
		<circle class="st0" cx="3714.8" cy="1943.15" r="1.42"/>
		<circle class="st0" cx="3431.34" cy="1943.15" r="1.42"/>
		<circle class="st0" cx="3998.27" cy="1943.15" r="1.42"/>
		<circle class="st0" cx="4281.73" cy="1943.15" r="1.42"/>
		<circle class="st0" cx="4565.2" cy="1943.15" r="1.42"/>
		<circle class="st0" cx="4848.66" cy="1943.15" r="1.42"/>
	</g>
	<g>
		<circle class="st0" cx="29.76" cy="2262.05" r="1.42"/>
		<circle class="st0" cx="313.23" cy="2262.05" r="1.42"/>
		<circle class="st0" cx="596.69" cy="2262.05" r="1.42"/>
		<circle class="st0" cx="880.16" cy="2262.05" r="1.42"/>
		<circle class="st0" cx="1163.62" cy="2262.05" r="1.42"/>
		<circle class="st0" cx="1447.09" cy="2262.05" r="1.42"/>
		<circle class="st0" cx="1730.55" cy="2262.05" r="1.42"/>
		<circle class="st0" cx="2014.02" cy="2262.05" r="1.42"/>
		<circle class="st0" cx="2297.48" cy="2262.05" r="1.42"/>
		<circle class="st0" cx="2580.94" cy="2262.05" r="1.42"/>
		<circle class="st0" cx="2864.41" cy="2262.05" r="1.42"/>
		<circle class="st0" cx="3147.87" cy="2262.05" r="1.42"/>
		<circle class="st0" cx="3714.8" cy="2262.05" r="1.42"/>
		<circle class="st0" cx="3431.34" cy="2262.05" r="1.42"/>
		<circle class="st0" cx="3998.27" cy="2262.05" r="1.42"/>
		<circle class="st0" cx="4281.73" cy="2262.05" r="1.42"/>
		<circle class="st0" cx="4565.2" cy="2262.05" r="1.42"/>
		<circle class="st0" cx="4848.66" cy="2262.05" r="1.42"/>
	</g>
	<g>
		<circle class="st0" cx="29.76" cy="2580.94" r="1.42"/>
		<circle class="st0" cx="313.23" cy="2580.94" r="1.42"/>
		<circle class="st0" cx="596.69" cy="2580.94" r="1.42"/>
		<circle class="st0" cx="880.16" cy="2580.94" r="1.42"/>
		<circle class="st0" cx="1163.62" cy="2580.94" r="1.42"/>
		<circle class="st0" cx="1447.09" cy="2580.94" r="1.42"/>
		<circle class="st0" cx="1730.55" cy="2580.94" r="1.42"/>
		<circle class="st0" cx="2014.02" cy="2580.94" r="1.42"/>
		<circle class="st0" cx="2297.48" cy="2580.94" r="1.42"/>
		<circle class="st0" cx="2580.94" cy="2580.94" r="1.42"/>
		<circle class="st0" cx="2864.41" cy="2580.94" r="1.42"/>
		<circle class="st0" cx="3147.87" cy="2580.94" r="1.42"/>
		<circle class="st0" cx="3714.8" cy="2580.94" r="1.42"/>
		<circle class="st0" cx="3431.34" cy="2580.94" r="1.42"/>
		<circle class="st0" cx="3998.27" cy="2580.94" r="1.42"/>
		<circle class="st0" cx="4281.73" cy="2580.94" r="1.42"/>
		<circle class="st0" cx="4565.2" cy="2580.94" r="1.42"/>
		<circle class="st0" cx="4848.66" cy="2580.94" r="1.42"/>
	</g>
</g>
</svg>
