<?xml version="1.0" encoding="utf-8"?>
<!-- Generator: Adobe Illustrator 23.1.0, SVG Export Plug-In . SVG Version: 6.00 Build 0)  -->
<svg version="1.1" id="Layer_1" xmlns="http://www.w3.org/2000/svg" xmlns:xlink="http://www.w3.org/1999/xlink" x="0px" y="0px"
	 viewBox="0 0 1018.92 1282.71" style="enable-background:new 0 0 1018.92 1282.71;" xml:space="preserve">
<style type="text/css">
	.st0{fill:#F8F6F2;}
	.st1{fill:none;stroke:#B3D334;stroke-width:3;stroke-miterlimit:10;}
	.st2{fill:#B3D334;}
	.st3{fill:#3F4847;}
	.st4{fill:none;stroke:#3F4847;stroke-width:19;stroke-miterlimit:10;}
	.st5{fill:none;stroke:#B3D334;stroke-width:10;stroke-miterlimit:10;}
	.st6{fill:none;stroke:#3F4847;stroke-width:5;stroke-miterlimit:10;}
</style>
<g>
	<polygon class="st0" points="106.41,874.87 106.41,789.58 0,727.17 0,984.27 508.81,1282.71 508.81,1106.2 	"/>
	<polygon class="st0" points="106.41,789.58 508.81,1025.61 508.81,1001.44 106.41,770.12 	"/>
	<polygon class="st0" points="508.81,1106.2 508.81,1025.61 106.41,789.58 106.41,874.87 	"/>
</g>
<polygon class="st1" points="793.63,833.17 793.63,504.29 508.81,339.85 223.99,504.29 223.99,833.17 508.81,997.6 "/>
<g>
	<polygon class="st2" points="0,783.62 106.4,846.03 106.4,770.14 510.11,1002.21 510.11,825.72 0,526.52 	"/>
	<polygon class="st3" points="106.4,846.03 106.4,874.9 510.11,1106.97 510.11,1082.82 	"/>
	<polygon class="st3" points="510.11,1002.21 106.4,770.14 106.4,846.03 510.11,1082.82 	"/>
</g>
<polygon class="st0" points="838.19,858.89 838.19,478.56 508.81,288.39 179.43,478.56 179.43,858.89 508.81,1049.06 "/>
<g>
	<polygon class="st2" points="912.52,407.83 912.52,493.12 1018.92,555.53 1018.92,298.44 510.11,0 510.11,176.51 	"/>
	<polygon class="st3" points="912.52,493.12 510.11,257.1 510.11,281.27 912.52,512.59 	"/>
	<polygon class="st3" points="510.11,176.51 510.11,257.1 912.52,493.12 912.52,407.83 	"/>
</g>
<polygon class="st4" points="772.37,820.89 772.37,516.56 508.81,364.39 245.25,516.56 245.25,820.89 508.81,973.06 "/>
<polygon class="st5" points="857.24,869.89 857.24,467.56 508.81,266.39 160.38,467.56 160.38,869.89 508.81,1071.06 "/>
<g>
	<path class="st2" d="M508.81,290.64l327.43,189.04v378.09l-327.43,189.04L181.38,857.77V479.68L508.81,290.64 M508.81,266.39
		L160.38,467.56v402.34l348.43,201.17l348.43-201.17V467.56L508.81,266.39L508.81,266.39z"/>
</g>
<polygon class="st1" points="793.63,833.17 793.63,504.29 508.81,339.85 223.99,504.29 223.99,833.17 508.81,997.6 "/>
<polygon class="st6" points="825.2,851.39 825.2,486.06 508.81,303.39 192.42,486.06 192.42,851.39 508.81,1034.06 "/>
<g>
	<path class="st2" d="M508.81,397l235.32,135.86v271.72L508.81,940.45L273.49,804.59V532.87L508.81,397 M508.81,390.08L267.49,529.4
		v278.65l241.32,139.33l241.32-139.33V529.4L508.81,390.08L508.81,390.08z"/>
</g>
</svg>
