<?xml version="1.0" encoding="utf-8"?>
<!-- Generator: Adobe Illustrator 23.1.0, SVG Export Plug-In . SVG Version: 6.00 Build 0)  -->
<svg version="1.1" id="Layer_1" xmlns="http://www.w3.org/2000/svg" xmlns:xlink="http://www.w3.org/1999/xlink" x="0px" y="0px"
	 viewBox="0 0 136.58 136.58" style="enable-background:new 0 0 136.58 136.58;" xml:space="preserve">
<style type="text/css">
	.st0{fill:#F8F6F2;}
	.st1{fill:#3F4847;}
</style>
<g>
	<path class="st0" d="M136.58,113.24c0,12.89-10.45,23.34-23.34,23.34h-89.9C10.45,136.58,0,126.13,0,113.24v-89.9
		C0,10.45,10.45,0,23.34,0h89.9c12.89,0,23.34,10.45,23.34,23.34V113.24z"/>
	<g>
		<g>
			<path class="st1" d="M90.04,122.47h-43.5c-19.3,0-35.01-15.71-35.01-35.01V49.13c0-19.3,15.71-35.01,35.01-35.01h43.5
				c19.3,0,35.01,15.71,35.01,35.01v38.33C125.05,106.76,109.34,122.47,90.04,122.47z M46.54,21.9c-15.02,0-27.23,12.21-27.23,27.23
				v38.33c0,15.02,12.21,27.23,27.23,27.23h43.5c15.01,0,27.23-12.21,27.23-27.23V49.13c0-15.01-12.22-27.23-27.23-27.23
				C90.04,21.9,46.54,21.9,46.54,21.9z"/>
		</g>
		<g>
			<path class="st1" d="M68.29,99.46c-17.19,0-31.16-13.98-31.16-31.17s13.98-31.16,31.16-31.16s31.16,13.98,31.16,31.16
				C99.46,85.48,85.48,99.46,68.29,99.46z M68.29,44.91C55.4,44.91,44.9,55.4,44.9,68.3c0,12.89,10.49,23.38,23.39,23.38
				c12.89,0,23.38-10.49,23.38-23.38C91.67,55.4,81.18,44.91,68.29,44.91z"/>
		</g>
		<g>
			<path class="st1" d="M105.44,38.09c0,3.57-2.89,6.46-6.46,6.46s-6.47-2.9-6.47-6.46c0-3.57,2.9-6.47,6.47-6.47
				S105.44,34.51,105.44,38.09z"/>
		</g>
	</g>
</g>
</svg>
