<?xml version="1.0" encoding="utf-8"?>
<!-- Generator: Adobe Illustrator 23.1.0, SVG Export Plug-In . SVG Version: 6.00 Build 0)  -->
<svg version="1.1" id="Layer_1" xmlns="http://www.w3.org/2000/svg" xmlns:xlink="http://www.w3.org/1999/xlink" x="0px" y="0px"
	 viewBox="0 0 5442.52 2985.22" style="enable-background:new 0 0 5442.52 2985.22;" xml:space="preserve">
<style type="text/css">
	.st0{fill:#B3D334;}
	.st1{opacity:0.2;fill:url(#SVGID_1_);}
	.st2{opacity:0.2;fill:url(#SVGID_2_);}
	.st3{opacity:0.2;fill:url(#SVGID_3_);}
	.st4{opacity:0.2;fill:url(#SVGID_4_);}
	.st5{opacity:0.2;fill:url(#SVGID_5_);}
	.st6{opacity:0.2;fill:url(#SVGID_6_);}
	.st7{opacity:0.2;fill:url(#SVGID_7_);}
	.st8{fill:#CADB32;}
	.st9{fill:#F8F6F2;}
	.st10{font-family:'Gotham-Medium';}
	.st11{font-size:65px;}
	.st12{fill:none;}
	.st13{opacity:0.6;fill:#B0D235;}
	.st14{fill:#3F4847;}
	.st15{opacity:0.8;fill:#B0D235;}
	.st16{fill:#9BCB3C;}
</style>
<g>
	<g>
		<circle class="st0" cx="3113.68" cy="5672.74" r="1.42"/>
		<circle class="st0" cx="3397.14" cy="5672.74" r="1.42"/>
		<circle class="st0" cx="3680.61" cy="5672.74" r="1.42"/>
		<circle class="st0" cx="3964.07" cy="5672.74" r="1.42"/>
		<circle class="st0" cx="4247.54" cy="5672.74" r="1.42"/>
		<circle class="st0" cx="4531" cy="5672.74" r="1.42"/>
		<circle class="st0" cx="4814.47" cy="5672.74" r="1.42"/>
		<circle class="st0" cx="5097.93" cy="5672.74" r="1.42"/>
		<circle class="st0" cx="5381.39" cy="5672.74" r="1.42"/>
		<circle class="st0" cx="5664.86" cy="5672.74" r="1.42"/>
		<circle class="st0" cx="5948.32" cy="5672.74" r="1.42"/>
		<circle class="st0" cx="6231.79" cy="5672.74" r="1.42"/>
		<circle class="st0" cx="6798.72" cy="5672.74" r="1.42"/>
		<circle class="st0" cx="6515.25" cy="5672.74" r="1.42"/>
		<circle class="st0" cx="7082.18" cy="5672.74" r="1.42"/>
		<circle class="st0" cx="7365.65" cy="5672.74" r="1.42"/>
		<circle class="st0" cx="7649.11" cy="5672.74" r="1.42"/>
		<circle class="st0" cx="7932.58" cy="5672.74" r="1.42"/>
	</g>
	<g>
		<circle class="st0" cx="3113.68" cy="5991.64" r="1.42"/>
		<circle class="st0" cx="3397.14" cy="5991.64" r="1.42"/>
		<circle class="st0" cx="3680.61" cy="5991.64" r="1.42"/>
		<circle class="st0" cx="3964.07" cy="5991.64" r="1.42"/>
		<circle class="st0" cx="4247.54" cy="5991.64" r="1.42"/>
		<circle class="st0" cx="4531" cy="5991.64" r="1.42"/>
		<circle class="st0" cx="4814.47" cy="5991.64" r="1.42"/>
		<circle class="st0" cx="5097.93" cy="5991.64" r="1.42"/>
		<circle class="st0" cx="5381.39" cy="5991.64" r="1.42"/>
		<circle class="st0" cx="5664.86" cy="5991.64" r="1.42"/>
		<circle class="st0" cx="5948.32" cy="5991.64" r="1.42"/>
		<circle class="st0" cx="6231.79" cy="5991.64" r="1.42"/>
		<circle class="st0" cx="6798.72" cy="5991.64" r="1.42"/>
		<circle class="st0" cx="6515.25" cy="5991.64" r="1.42"/>
		<circle class="st0" cx="7082.18" cy="5991.64" r="1.42"/>
		<circle class="st0" cx="7365.65" cy="5991.64" r="1.42"/>
		<circle class="st0" cx="7649.11" cy="5991.64" r="1.42"/>
		<circle class="st0" cx="7932.58" cy="5991.64" r="1.42"/>
	</g>
	<g>
		<circle class="st0" cx="3113.68" cy="6310.53" r="1.42"/>
		<circle class="st0" cx="3397.14" cy="6310.53" r="1.42"/>
		<circle class="st0" cx="3680.61" cy="6310.53" r="1.42"/>
		<circle class="st0" cx="3964.07" cy="6310.53" r="1.42"/>
		<circle class="st0" cx="4247.54" cy="6310.53" r="1.42"/>
		<circle class="st0" cx="4531" cy="6310.53" r="1.42"/>
		<circle class="st0" cx="4814.47" cy="6310.53" r="1.42"/>
		<circle class="st0" cx="5097.93" cy="6310.53" r="1.42"/>
		<circle class="st0" cx="5381.39" cy="6310.53" r="1.42"/>
		<circle class="st0" cx="5664.86" cy="6310.53" r="1.42"/>
		<circle class="st0" cx="5948.32" cy="6310.53" r="1.42"/>
		<circle class="st0" cx="6231.79" cy="6310.53" r="1.42"/>
		<circle class="st0" cx="6798.72" cy="6310.53" r="1.42"/>
		<circle class="st0" cx="6515.25" cy="6310.53" r="1.42"/>
		<circle class="st0" cx="7082.18" cy="6310.53" r="1.42"/>
		<circle class="st0" cx="7365.65" cy="6310.53" r="1.42"/>
		<circle class="st0" cx="7649.11" cy="6310.53" r="1.42"/>
		<circle class="st0" cx="7932.58" cy="6310.53" r="1.42"/>
	</g>
	<g>
		<circle class="st0" cx="3113.68" cy="6629.43" r="1.42"/>
		<circle class="st0" cx="3397.14" cy="6629.43" r="1.42"/>
		<circle class="st0" cx="3680.61" cy="6629.43" r="1.42"/>
		<circle class="st0" cx="3964.07" cy="6629.43" r="1.42"/>
		<circle class="st0" cx="4247.54" cy="6629.43" r="1.42"/>
		<circle class="st0" cx="4531" cy="6629.43" r="1.42"/>
		<circle class="st0" cx="4814.47" cy="6629.43" r="1.42"/>
		<circle class="st0" cx="5097.93" cy="6629.43" r="1.42"/>
		<circle class="st0" cx="5381.39" cy="6629.43" r="1.42"/>
		<circle class="st0" cx="5664.86" cy="6629.43" r="1.42"/>
		<circle class="st0" cx="5948.32" cy="6629.43" r="1.42"/>
		<circle class="st0" cx="6231.79" cy="6629.43" r="1.42"/>
		<circle class="st0" cx="6798.72" cy="6629.43" r="1.42"/>
		<circle class="st0" cx="6515.25" cy="6629.43" r="1.42"/>
		<circle class="st0" cx="7082.18" cy="6629.43" r="1.42"/>
		<circle class="st0" cx="7365.65" cy="6629.43" r="1.42"/>
		<circle class="st0" cx="7649.11" cy="6629.43" r="1.42"/>
		<circle class="st0" cx="7932.58" cy="6629.43" r="1.42"/>
	</g>
	<g>
		<circle class="st0" cx="3113.68" cy="6948.33" r="1.42"/>
		<circle class="st0" cx="3397.14" cy="6948.33" r="1.42"/>
		<circle class="st0" cx="3680.61" cy="6948.33" r="1.42"/>
		<circle class="st0" cx="3964.07" cy="6948.33" r="1.42"/>
		<circle class="st0" cx="4247.54" cy="6948.33" r="1.42"/>
		<circle class="st0" cx="4531" cy="6948.33" r="1.42"/>
		<circle class="st0" cx="4814.47" cy="6948.33" r="1.42"/>
		<circle class="st0" cx="5097.93" cy="6948.33" r="1.42"/>
		<circle class="st0" cx="5381.39" cy="6948.33" r="1.42"/>
		<circle class="st0" cx="5664.86" cy="6948.33" r="1.42"/>
		<circle class="st0" cx="5948.32" cy="6948.33" r="1.42"/>
		<circle class="st0" cx="6231.79" cy="6948.33" r="1.42"/>
		<circle class="st0" cx="6798.72" cy="6948.33" r="1.42"/>
		<circle class="st0" cx="6515.25" cy="6948.33" r="1.42"/>
		<circle class="st0" cx="7082.18" cy="6948.33" r="1.42"/>
		<circle class="st0" cx="7365.65" cy="6948.33" r="1.42"/>
		<circle class="st0" cx="7649.11" cy="6948.33" r="1.42"/>
		<circle class="st0" cx="7932.58" cy="6948.33" r="1.42"/>
	</g>
	<g>
		<circle class="st0" cx="3113.68" cy="7267.23" r="1.42"/>
		<circle class="st0" cx="3397.14" cy="7267.23" r="1.42"/>
		<circle class="st0" cx="3680.61" cy="7267.23" r="1.42"/>
		<circle class="st0" cx="3964.07" cy="7267.23" r="1.42"/>
		<circle class="st0" cx="4247.54" cy="7267.23" r="1.42"/>
		<circle class="st0" cx="4531" cy="7267.23" r="1.42"/>
		<circle class="st0" cx="4814.47" cy="7267.23" r="1.42"/>
		<circle class="st0" cx="5097.93" cy="7267.23" r="1.42"/>
		<circle class="st0" cx="5381.39" cy="7267.23" r="1.42"/>
		<circle class="st0" cx="5664.86" cy="7267.23" r="1.42"/>
		<circle class="st0" cx="5948.32" cy="7267.23" r="1.42"/>
		<circle class="st0" cx="6231.79" cy="7267.23" r="1.42"/>
		<circle class="st0" cx="6798.72" cy="7267.23" r="1.42"/>
		<circle class="st0" cx="6515.25" cy="7267.23" r="1.42"/>
		<circle class="st0" cx="7082.18" cy="7267.23" r="1.42"/>
		<circle class="st0" cx="7365.65" cy="7267.23" r="1.42"/>
		<circle class="st0" cx="7649.11" cy="7267.23" r="1.42"/>
		<circle class="st0" cx="7932.58" cy="7267.23" r="1.42"/>
	</g>
	<g>
		<circle class="st0" cx="3113.68" cy="7586.13" r="1.42"/>
		<circle class="st0" cx="3397.14" cy="7586.13" r="1.42"/>
		<circle class="st0" cx="3680.61" cy="7586.13" r="1.42"/>
		<circle class="st0" cx="3964.07" cy="7586.13" r="1.42"/>
		<circle class="st0" cx="4247.54" cy="7586.13" r="1.42"/>
		<circle class="st0" cx="4531" cy="7586.13" r="1.42"/>
		<circle class="st0" cx="4814.47" cy="7586.13" r="1.42"/>
		<circle class="st0" cx="5097.93" cy="7586.13" r="1.42"/>
		<circle class="st0" cx="5381.39" cy="7586.13" r="1.42"/>
		<circle class="st0" cx="5664.86" cy="7586.13" r="1.42"/>
		<circle class="st0" cx="5948.32" cy="7586.13" r="1.42"/>
		<circle class="st0" cx="6231.79" cy="7586.13" r="1.42"/>
		<circle class="st0" cx="6798.72" cy="7586.13" r="1.42"/>
		<circle class="st0" cx="6515.25" cy="7586.13" r="1.42"/>
		<circle class="st0" cx="7082.18" cy="7586.13" r="1.42"/>
		<circle class="st0" cx="7365.65" cy="7586.13" r="1.42"/>
		<circle class="st0" cx="7649.11" cy="7586.13" r="1.42"/>
		<circle class="st0" cx="7932.58" cy="7586.13" r="1.42"/>
	</g>
	<g>
		<circle class="st0" cx="3113.68" cy="7905.02" r="1.42"/>
		<circle class="st0" cx="3397.14" cy="7905.02" r="1.42"/>
		<circle class="st0" cx="3680.61" cy="7905.02" r="1.42"/>
		<circle class="st0" cx="3964.07" cy="7905.02" r="1.42"/>
		<circle class="st0" cx="4247.54" cy="7905.02" r="1.42"/>
		<circle class="st0" cx="4531" cy="7905.02" r="1.42"/>
		<circle class="st0" cx="4814.47" cy="7905.02" r="1.42"/>
		<circle class="st0" cx="5097.93" cy="7905.02" r="1.42"/>
		<circle class="st0" cx="5381.39" cy="7905.02" r="1.42"/>
		<circle class="st0" cx="5664.86" cy="7905.02" r="1.42"/>
		<circle class="st0" cx="5948.32" cy="7905.02" r="1.42"/>
		<circle class="st0" cx="6231.79" cy="7905.02" r="1.42"/>
		<circle class="st0" cx="6798.72" cy="7905.02" r="1.42"/>
		<circle class="st0" cx="6515.25" cy="7905.02" r="1.42"/>
		<circle class="st0" cx="7082.18" cy="7905.02" r="1.42"/>
		<circle class="st0" cx="7365.65" cy="7905.02" r="1.42"/>
		<circle class="st0" cx="7649.11" cy="7905.02" r="1.42"/>
		<circle class="st0" cx="7932.58" cy="7905.02" r="1.42"/>
	</g>
	<g>
		<circle class="st0" cx="3113.68" cy="8223.92" r="1.42"/>
		<circle class="st0" cx="3397.14" cy="8223.92" r="1.42"/>
		<circle class="st0" cx="3680.61" cy="8223.92" r="1.42"/>
		<circle class="st0" cx="3964.07" cy="8223.92" r="1.42"/>
		<circle class="st0" cx="4247.54" cy="8223.92" r="1.42"/>
		<circle class="st0" cx="4531" cy="8223.92" r="1.42"/>
		<circle class="st0" cx="4814.47" cy="8223.92" r="1.42"/>
		<circle class="st0" cx="5097.93" cy="8223.92" r="1.42"/>
		<circle class="st0" cx="5381.39" cy="8223.92" r="1.42"/>
		<circle class="st0" cx="5664.86" cy="8223.92" r="1.42"/>
		<circle class="st0" cx="5948.32" cy="8223.92" r="1.42"/>
		<circle class="st0" cx="6231.79" cy="8223.92" r="1.42"/>
		<circle class="st0" cx="6798.72" cy="8223.92" r="1.42"/>
		<circle class="st0" cx="6515.25" cy="8223.92" r="1.42"/>
		<circle class="st0" cx="7082.18" cy="8223.92" r="1.42"/>
		<circle class="st0" cx="7365.65" cy="8223.92" r="1.42"/>
		<circle class="st0" cx="7649.11" cy="8223.92" r="1.42"/>
		<circle class="st0" cx="7932.58" cy="8223.92" r="1.42"/>
	</g>
</g>
<g>
	<g>
		<linearGradient id="SVGID_1_" gradientUnits="userSpaceOnUse" x1="818.584" y1="823.131" x2="4183.9111" y2="2934.7087">
			<stop  offset="0" style="stop-color:#B2D235;stop-opacity:0"/>
			<stop  offset="0.5" style="stop-color:#B2D235"/>
			<stop  offset="1" style="stop-color:#B2D235;stop-opacity:0"/>
		</linearGradient>
		<polygon class="st1" points="0,155.72 0,403.55 2721.26,2170.76 2721.26,1922.92 		"/>
		<linearGradient id="SVGID_2_" gradientUnits="userSpaceOnUse" x1="938.6266" y1="631.8132" x2="4303.9536" y2="2743.3909">
			<stop  offset="0" style="stop-color:#B2D235;stop-opacity:0"/>
			<stop  offset="0.5" style="stop-color:#B2D235"/>
			<stop  offset="1" style="stop-color:#B2D235;stop-opacity:0"/>
		</linearGradient>
		<polygon class="st2" points="2721.26,1699.35 104.49,0 0,0 0,91.55 2721.26,1858.76 		"/>
		<linearGradient id="SVGID_3_" gradientUnits="userSpaceOnUse" x1="1075.2452" y1="414.0772" x2="4440.5723" y2="2525.6548">
			<stop  offset="0" style="stop-color:#B2D235;stop-opacity:0"/>
			<stop  offset="0.5" style="stop-color:#B2D235"/>
			<stop  offset="1" style="stop-color:#B2D235;stop-opacity:0"/>
		</linearGradient>
		<polygon class="st3" points="2721.26,1291.81 732.04,0 187.25,0 2721.26,1645.6 		"/>
		<linearGradient id="SVGID_4_" gradientUnits="userSpaceOnUse" x1="1366.1678" y1="-53.5325" x2="4731.4946" y2="2058.0452">
			<stop  offset="0" style="stop-color:#B2D235;stop-opacity:0"/>
			<stop  offset="0.5" style="stop-color:#B2D235"/>
			<stop  offset="1" style="stop-color:#B2D235;stop-opacity:0"/>
		</linearGradient>
		<polygon class="st4" points="5442.52,2421.19 1714.21,0 1332.58,0 5442.52,2669.03 		"/>
		<linearGradient id="SVGID_5_" gradientUnits="userSpaceOnUse" x1="1486.8044" y1="-241.8453" x2="4852.1313" y2="1869.7324">
			<stop  offset="0" style="stop-color:#B2D235;stop-opacity:0"/>
			<stop  offset="0.5" style="stop-color:#B2D235"/>
			<stop  offset="1" style="stop-color:#B2D235;stop-opacity:0"/>
		</linearGradient>
		<polygon class="st5" points="5442.52,2197.62 2058.48,0 1813.02,0 5442.52,2357.03 		"/>
		<linearGradient id="SVGID_6_" gradientUnits="userSpaceOnUse" x1="1623.4231" y1="-459.5812" x2="4988.75" y2="1651.9965">
			<stop  offset="0" style="stop-color:#B2D235;stop-opacity:0"/>
			<stop  offset="0.5" style="stop-color:#B2D235"/>
			<stop  offset="1" style="stop-color:#B2D235;stop-opacity:0"/>
		</linearGradient>
		<polygon class="st6" points="5442.52,1790.08 2686.04,0 2141.25,0 5442.52,2143.87 		"/>
		<linearGradient id="SVGID_7_" gradientUnits="userSpaceOnUse" x1="1227.9988" y1="170.6262" x2="4593.3257" y2="2282.2039">
			<stop  offset="0" style="stop-color:#B2D235;stop-opacity:0"/>
			<stop  offset="0.5" style="stop-color:#B2D235"/>
			<stop  offset="1" style="stop-color:#B2D235;stop-opacity:0"/>
		</linearGradient>
		<polygon class="st7" points="1227.31,0 845.68,0 5442.52,2985.22 5442.52,2737.39 		"/>
	</g>
	<polygon class="st8" points="3230.07,1557.65 2212.45,900.78 2212.45,643.68 3230.07,1300.55 	"/>
	<g>
		<text transform="matrix(1 0 0 1 4129.5234 1478.0782)" class="st9 st10 st11">+ +</text>
		<text transform="matrix(1 0 0 1 3770.9995 1477.0001)" class="st9 st10 st11">CREATIVE</text>
	</g>
	<g>
		<text transform="matrix(1 0 0 1 1116.6056 820.0783)" class="st9 st10 st11">+ +</text>
		<text transform="matrix(1 0 0 1 1228.1036 825.0001)" class="st9 st10 st11">CORPORATE</text>
	</g>
	<polygon class="st12" points="2721.09,378.56 2721.09,432.3 3736.43,1091.67 3736.43,1037.92 	"/>
	<polygon class="st13" points="2721.09,903.71 3736.43,1563.08 3736.43,1315.24 2721.09,655.88 	"/>
	<polygon class="st14" points="2721.09,541.71 3528.27,1065.9 3528.27,936.49 2721.09,412.3 	"/>
	<polygon class="st15" points="3736.43,684.13 2721.09,24.77 2721.09,378.56 3736.43,1037.92 	"/>
	<polygon class="st13" points="2721.26,2172.76 2721.26,1924.92 1702.22,1263.15 1702.22,1510.99 	"/>
	<polygon class="st14" points="2721.26,1870.76 2721.26,1741.35 1702.22,1079.58 1702.22,1208.99 	"/>
	<polygon class="st16" points="2721.26,1884.76 2721.26,1780 1916.45,1257.35 1916.45,1362.11 	"/>
	<polygon class="st14" points="3123.67,1514.71 3123.67,1409.95 2318.85,887.3 2318.85,992.06 	"/>
	<polygon class="st15" points="2721.26,1293.81 1702.22,632.04 1702.22,985.83 2721.26,1647.6 	"/>
</g>
</svg>
