<?xml version="1.0" encoding="utf-8"?>
<!-- Generator: Adobe Illustrator 23.0.2, SVG Export Plug-In . SVG Version: 6.00 Build 0)  -->
<svg version="1.1" id="Layer_1" xmlns="http://www.w3.org/2000/svg" xmlns:xlink="http://www.w3.org/1999/xlink" x="0px" y="0px"
	 viewBox="0 0 369 99" style="enable-background:new 0 0 369 99;" xml:space="preserve">
<style type="text/css">
	.st0{fill:#F8F6F3;}
	.st1{fill:#3F4847;}
</style>
<g>
	<g>
		<rect class="st0" width="369" height="99"/>
	</g>
	<g>
		<path class="st1" d="M27.22,30.9h13.88c8.37,0,13.88,4.45,13.88,11.76v0.11c0,8-6.68,12.13-14.57,12.13h-9.01V68h-4.19V30.9z
			 M40.58,51.09c6.15,0,10.17-3.29,10.17-8.16v-0.11c0-5.3-3.97-8.06-9.96-8.06h-9.38v16.32H40.58z"/>
		<path class="st1" d="M60.98,49.56v-0.11c0-10.23,7.68-19.18,18.97-19.18s18.87,8.85,18.87,19.08v0.11
			c0,10.23-7.68,19.18-18.97,19.18S60.98,59.79,60.98,49.56z M94.48,49.56v-0.11c0-8.43-6.15-15.32-14.63-15.32
			s-14.52,6.78-14.52,15.21v0.11c0,8.43,6.15,15.32,14.63,15.32S94.48,57.98,94.48,49.56z"/>
		<path class="st1" d="M107.68,30.9h15.95c4.56,0,8.21,1.38,10.55,3.71c1.8,1.8,2.86,4.4,2.86,7.31v0.11
			c0,6.15-4.24,9.75-10.07,10.81L138.36,68h-5.14l-10.76-14.41h-10.6V68h-4.19V30.9z M123.26,49.82c5.56,0,9.54-2.86,9.54-7.63
			v-0.11c0-4.56-3.5-7.31-9.49-7.31h-11.45v15.05H123.26z"/>
		<path class="st1" d="M155.43,34.77h-12.45V30.9h29.15v3.87h-12.45V68h-4.24V34.77z"/>
		<path class="st1" d="M179.97,30.9h26.66v3.87h-22.47v13.25h20.08v3.82h-20.08V68h-4.19V30.9z"/>
		<path class="st1" d="M212.3,49.56v-0.11c0-10.23,7.68-19.18,18.97-19.18c11.29,0,18.87,8.85,18.87,19.08v0.11
			c0,10.23-7.68,19.18-18.97,19.18C219.88,68.64,212.3,59.79,212.3,49.56z M245.79,49.56v-0.11c0-8.43-6.15-15.32-14.63-15.32
			c-8.48,0-14.52,6.78-14.52,15.21v0.11c0,8.43,6.15,15.32,14.63,15.32C239.75,64.77,245.79,57.98,245.79,49.56z"/>
		<path class="st1" d="M258.99,30.9h4.19v33.23h20.88V68h-25.07V30.9z"/>
		<path class="st1" d="M292.17,30.9h4.19V68h-4.19V30.9z"/>
		<path class="st1" d="M305.58,49.56v-0.11c0-10.23,7.68-19.18,18.97-19.18c11.29,0,18.87,8.85,18.87,19.08v0.11
			c0,10.23-7.68,19.18-18.97,19.18C313.15,68.64,305.58,59.79,305.58,49.56z M339.07,49.56v-0.11c0-8.43-6.15-15.32-14.63-15.32
			c-8.48,0-14.52,6.78-14.52,15.21v0.11c0,8.43,6.15,15.32,14.63,15.32C333.03,64.77,339.07,57.98,339.07,49.56z"/>
	</g>
</g>
</svg>
