<svg width="300" height="142" viewBox="0 0 300 142" fill="none" xmlns="http://www.w3.org/2000/svg">
<g clip-path="url(#clip0)">
<path d="M240.929 30.7247V0.278564H59.1567V30.7247L150.043 83.1957L240.929 30.7247Z" fill="#B3D234"/>
<path d="M9.28782 52.2611L38.6468 69.4819V48.5416L150.043 112.577V85.9522L9.28782 3.3938V52.2611Z" fill="#B3D234"/>
<path d="M290.8 52.2611L261.439 69.4819V48.5416L150.043 112.577V85.9522L290.8 3.3938V52.2611Z" fill="#B3D234"/>
<path d="M38.6468 69.4819V77.448L150.043 141.483V134.82L38.6468 69.4819Z" fill="#F8F6F3"/>
<path d="M261.439 69.4819V77.448L150.043 141.483V134.82L261.439 69.4819Z" fill="#F8F6F3"/>
<path d="M150.043 112.577L38.6468 48.5417V69.4821L150.043 134.82V112.577Z" fill="#3F4847"/>
<path d="M150.043 112.577L261.439 48.5417V69.4821L150.043 134.82V112.577Z" fill="#3F4847"/>
<path d="M244.665 21.1306V29.4251L150.043 83.8193V76.8796L244.665 21.1306Z" fill="#3F4847"/>
<path d="M55.4206 21.1306V29.4251L150.043 83.8193V76.8796L55.4206 21.1306Z" fill="#3F4847"/>
<path d="M300.044 2.23486V15.383L150.043 101.611V90.6127L300.044 2.23486Z" fill="#3F4847"/>
<path d="M0.0441437 2.23486V15.383L150.043 101.611V90.6127L0.0441437 2.23486Z" fill="#3F4847"/>
<path d="M240.929 0.278564H59.1567L150.043 76.8796L240.929 0.278564Z" fill="#C9DA31"/>
<path d="M106.003 22.1736H109.834C112.144 22.1736 113.664 23.4018 113.664 25.4193V25.4497C113.664 27.6576 111.821 28.7975 109.643 28.7975H107.156V32.4131H106V22.1736H106.003ZM109.69 27.746C111.387 27.746 112.497 26.8379 112.497 25.4938V25.4635C112.497 24.0007 111.401 23.2389 109.748 23.2389H107.159V27.7432H109.69V27.746Z" fill="#3F4847"/>
<path d="M115.32 27.324V27.2936C115.32 24.4702 117.44 22 120.556 22C123.672 22 125.764 24.4426 125.764 27.266V27.2964C125.764 30.1198 123.644 32.59 120.528 32.59C117.412 32.59 115.32 30.1474 115.32 27.324ZM124.566 27.324V27.2936C124.566 24.967 122.869 23.0653 120.528 23.0653C118.188 23.0653 116.521 24.9366 116.521 27.2633V27.2936C116.521 29.6203 118.218 31.5219 120.559 31.5219C122.899 31.5219 124.566 29.6479 124.566 27.324Z" fill="#3F4847"/>
<path d="M128.209 22.1736H132.612C133.87 22.1736 134.878 22.5545 135.523 23.1975C136.02 23.6943 136.313 24.4119 136.313 25.2151V25.2454C136.313 26.9428 135.143 27.9364 133.533 28.229L136.677 32.4131H135.258L132.289 28.436H129.363V32.4131H128.207V22.1736H128.209ZM132.509 27.3954C134.044 27.3954 135.143 26.6061 135.143 25.2896V25.2592C135.143 24.0007 134.177 23.2417 132.523 23.2417H129.363V27.3954H132.509V27.3954Z" fill="#3F4847"/>
<path d="M141.388 23.2417H137.952V22.1736H145.997V23.2417H142.561V32.4131H141.391V23.2417H141.388Z" fill="#3F4847"/>
<path d="M148.161 22.1736H155.519V23.2417H149.318V26.8987H154.86V27.953H149.318V32.4131H148.161V22.1736V22.1736Z" fill="#3F4847"/>
<path d="M157.084 27.324V27.2936C157.084 24.4702 159.204 22 162.32 22C165.436 22 167.528 24.4426 167.528 27.266V27.2964C167.528 30.1198 165.408 32.59 162.292 32.59C159.176 32.59 157.084 30.1474 157.084 27.324ZM166.327 27.324V27.2936C166.327 24.967 164.63 23.0653 162.29 23.0653C159.949 23.0653 158.282 24.9366 158.282 27.2633V27.2936C158.282 29.6203 159.979 31.5219 162.32 31.5219C164.66 31.5219 166.327 29.6479 166.327 27.324Z" fill="#3F4847"/>
<path d="M169.971 22.1736H171.127V31.345H176.89V32.4131H169.971V22.1736Z" fill="#3F4847"/>
<path d="M179.128 22.1736H180.285V32.4131H179.128V22.1736Z" fill="#3F4847"/>
<path d="M182.829 27.324V27.2936C182.829 24.4702 184.949 22 188.065 22C191.181 22 193.273 24.4426 193.273 27.266V27.2964C193.273 30.1198 191.153 32.59 188.037 32.59C184.919 32.59 182.829 30.1474 182.829 27.324ZM192.072 27.324V27.2936C192.072 24.967 190.375 23.0653 188.035 23.0653C185.694 23.0653 184.027 24.9366 184.027 27.2633V27.2936C184.027 29.6203 185.724 31.5219 188.065 31.5219C190.405 31.5219 192.072 29.6479 192.072 27.324Z" fill="#3F4847"/>
</g>
<defs>
<clipPath id="clip0">
<rect width="300" height="141.205" fill="white"/>
</clipPath>
</defs>
</svg>
