<?xml version="1.0" encoding="utf-8"?>
<!-- Generator: Adobe Illustrator 23.0.2, SVG Export Plug-In . SVG Version: 6.00 Build 0)  -->
<svg version="1.1" id="Layer_1" xmlns="http://www.w3.org/2000/svg" xmlns:xlink="http://www.w3.org/1999/xlink" x="0px" y="0px"
	 viewBox="0 0 1087.23 511.74" style="enable-background:new 0 0 1087.23 511.74;" xml:space="preserve">
<style type="text/css">
	.st0{fill:#B3D334;}
	.st1{fill:#B3D234;}
	.st2{fill:#F8F6F3;}
	.st3{fill:#3F4847;}
	.st4{fill:#C9DA31;}
	.st5{enable-background:new    ;}
	.st6{fill:#1E1A18;}
</style>
<g>
	<g>
		<circle class="st0" cx="936.03" cy="4436" r="1.42"/>
		<circle class="st0" cx="1219.5" cy="4436" r="1.42"/>
		<circle class="st0" cx="1502.96" cy="4436" r="1.42"/>
		<circle class="st0" cx="1786.43" cy="4436" r="1.42"/>
		<circle class="st0" cx="2069.89" cy="4436" r="1.42"/>
		<circle class="st0" cx="2353.35" cy="4436" r="1.42"/>
		<circle class="st0" cx="2636.82" cy="4436" r="1.42"/>
		<circle class="st0" cx="2920.28" cy="4436" r="1.42"/>
		<circle class="st0" cx="3203.75" cy="4436" r="1.42"/>
		<circle class="st0" cx="3487.21" cy="4436" r="1.42"/>
		<circle class="st0" cx="3770.68" cy="4436" r="1.42"/>
		<circle class="st0" cx="4054.14" cy="4436" r="1.42"/>
		<circle class="st0" cx="4621.07" cy="4436" r="1.42"/>
		<circle class="st0" cx="4337.61" cy="4436" r="1.42"/>
		<circle class="st0" cx="4904.54" cy="4436" r="1.42"/>
		<circle class="st0" cx="5188" cy="4436" r="1.42"/>
		<circle class="st0" cx="5471.46" cy="4436" r="1.42"/>
		<circle class="st0" cx="5754.93" cy="4436" r="1.42"/>
	</g>
	<g>
		<circle class="st0" cx="936.03" cy="4754.9" r="1.42"/>
		<circle class="st0" cx="1219.5" cy="4754.9" r="1.42"/>
		<circle class="st0" cx="1502.96" cy="4754.9" r="1.42"/>
		<circle class="st0" cx="1786.43" cy="4754.9" r="1.42"/>
		<circle class="st0" cx="2069.89" cy="4754.9" r="1.42"/>
		<circle class="st0" cx="2353.35" cy="4754.9" r="1.42"/>
		<circle class="st0" cx="2636.82" cy="4754.9" r="1.42"/>
		<circle class="st0" cx="2920.28" cy="4754.9" r="1.42"/>
		<circle class="st0" cx="3203.75" cy="4754.9" r="1.42"/>
		<circle class="st0" cx="3487.21" cy="4754.9" r="1.42"/>
		<circle class="st0" cx="3770.68" cy="4754.9" r="1.42"/>
		<circle class="st0" cx="4054.14" cy="4754.9" r="1.42"/>
		<circle class="st0" cx="4621.07" cy="4754.9" r="1.42"/>
		<circle class="st0" cx="4337.61" cy="4754.9" r="1.42"/>
		<circle class="st0" cx="4904.54" cy="4754.9" r="1.42"/>
		<circle class="st0" cx="5188" cy="4754.9" r="1.42"/>
		<circle class="st0" cx="5471.46" cy="4754.9" r="1.42"/>
		<circle class="st0" cx="5754.93" cy="4754.9" r="1.42"/>
	</g>
	<g>
		<circle class="st0" cx="936.03" cy="5073.79" r="1.42"/>
		<circle class="st0" cx="1219.5" cy="5073.79" r="1.42"/>
		<circle class="st0" cx="1502.96" cy="5073.79" r="1.42"/>
		<circle class="st0" cx="1786.43" cy="5073.79" r="1.42"/>
		<circle class="st0" cx="2069.89" cy="5073.79" r="1.42"/>
		<circle class="st0" cx="2353.35" cy="5073.79" r="1.42"/>
		<circle class="st0" cx="2636.82" cy="5073.79" r="1.42"/>
		<circle class="st0" cx="2920.28" cy="5073.79" r="1.42"/>
		<circle class="st0" cx="3203.75" cy="5073.79" r="1.42"/>
		<circle class="st0" cx="3487.21" cy="5073.79" r="1.42"/>
		<circle class="st0" cx="3770.68" cy="5073.79" r="1.42"/>
		<circle class="st0" cx="4054.14" cy="5073.79" r="1.42"/>
		<circle class="st0" cx="4621.07" cy="5073.79" r="1.42"/>
		<circle class="st0" cx="4337.61" cy="5073.79" r="1.42"/>
		<circle class="st0" cx="4904.54" cy="5073.79" r="1.42"/>
		<circle class="st0" cx="5188" cy="5073.79" r="1.42"/>
		<circle class="st0" cx="5471.46" cy="5073.79" r="1.42"/>
		<circle class="st0" cx="5754.93" cy="5073.79" r="1.42"/>
	</g>
	<g>
		<circle class="st0" cx="936.03" cy="5392.69" r="1.42"/>
		<circle class="st0" cx="1219.5" cy="5392.69" r="1.42"/>
		<circle class="st0" cx="1502.96" cy="5392.69" r="1.42"/>
		<circle class="st0" cx="1786.43" cy="5392.69" r="1.42"/>
		<circle class="st0" cx="2069.89" cy="5392.69" r="1.42"/>
		<circle class="st0" cx="2353.35" cy="5392.69" r="1.42"/>
		<circle class="st0" cx="2636.82" cy="5392.69" r="1.42"/>
		<circle class="st0" cx="2920.28" cy="5392.69" r="1.42"/>
		<circle class="st0" cx="3203.75" cy="5392.69" r="1.42"/>
		<circle class="st0" cx="3487.21" cy="5392.69" r="1.42"/>
		<circle class="st0" cx="3770.68" cy="5392.69" r="1.42"/>
		<circle class="st0" cx="4054.14" cy="5392.69" r="1.42"/>
		<circle class="st0" cx="4621.07" cy="5392.69" r="1.42"/>
		<circle class="st0" cx="4337.61" cy="5392.69" r="1.42"/>
		<circle class="st0" cx="4904.54" cy="5392.69" r="1.42"/>
		<circle class="st0" cx="5188" cy="5392.69" r="1.42"/>
		<circle class="st0" cx="5471.46" cy="5392.69" r="1.42"/>
		<circle class="st0" cx="5754.93" cy="5392.69" r="1.42"/>
	</g>
	<g>
		<circle class="st0" cx="936.03" cy="5711.59" r="1.42"/>
		<circle class="st0" cx="1219.5" cy="5711.59" r="1.42"/>
		<circle class="st0" cx="1502.96" cy="5711.59" r="1.42"/>
		<circle class="st0" cx="1786.43" cy="5711.59" r="1.42"/>
		<circle class="st0" cx="2069.89" cy="5711.59" r="1.42"/>
		<circle class="st0" cx="2353.35" cy="5711.59" r="1.42"/>
		<circle class="st0" cx="2636.82" cy="5711.59" r="1.42"/>
		<circle class="st0" cx="2920.28" cy="5711.59" r="1.42"/>
		<circle class="st0" cx="3203.75" cy="5711.59" r="1.42"/>
		<circle class="st0" cx="3487.21" cy="5711.59" r="1.42"/>
		<circle class="st0" cx="3770.68" cy="5711.59" r="1.42"/>
		<circle class="st0" cx="4054.14" cy="5711.59" r="1.42"/>
		<circle class="st0" cx="4621.07" cy="5711.59" r="1.42"/>
		<circle class="st0" cx="4337.61" cy="5711.59" r="1.42"/>
		<circle class="st0" cx="4904.54" cy="5711.59" r="1.42"/>
		<circle class="st0" cx="5188" cy="5711.59" r="1.42"/>
		<circle class="st0" cx="5471.46" cy="5711.59" r="1.42"/>
		<circle class="st0" cx="5754.93" cy="5711.59" r="1.42"/>
	</g>
	<g>
		<circle class="st0" cx="936.03" cy="6030.49" r="1.42"/>
		<circle class="st0" cx="1219.5" cy="6030.49" r="1.42"/>
		<circle class="st0" cx="1502.96" cy="6030.49" r="1.42"/>
		<circle class="st0" cx="1786.43" cy="6030.49" r="1.42"/>
		<circle class="st0" cx="2069.89" cy="6030.49" r="1.42"/>
		<circle class="st0" cx="2353.35" cy="6030.49" r="1.42"/>
		<circle class="st0" cx="2636.82" cy="6030.49" r="1.42"/>
		<circle class="st0" cx="2920.28" cy="6030.49" r="1.42"/>
		<circle class="st0" cx="3203.75" cy="6030.49" r="1.42"/>
		<circle class="st0" cx="3487.21" cy="6030.49" r="1.42"/>
		<circle class="st0" cx="3770.68" cy="6030.49" r="1.42"/>
		<circle class="st0" cx="4054.14" cy="6030.49" r="1.42"/>
		<circle class="st0" cx="4621.07" cy="6030.49" r="1.42"/>
		<circle class="st0" cx="4337.61" cy="6030.49" r="1.42"/>
		<circle class="st0" cx="4904.54" cy="6030.49" r="1.42"/>
		<circle class="st0" cx="5188" cy="6030.49" r="1.42"/>
		<circle class="st0" cx="5471.46" cy="6030.49" r="1.42"/>
		<circle class="st0" cx="5754.93" cy="6030.49" r="1.42"/>
	</g>
	<g>
		<circle class="st0" cx="936.03" cy="6349.38" r="1.42"/>
		<circle class="st0" cx="1219.5" cy="6349.38" r="1.42"/>
		<circle class="st0" cx="1502.96" cy="6349.38" r="1.42"/>
		<circle class="st0" cx="1786.43" cy="6349.38" r="1.42"/>
		<circle class="st0" cx="2069.89" cy="6349.38" r="1.42"/>
		<circle class="st0" cx="2353.35" cy="6349.38" r="1.42"/>
		<circle class="st0" cx="2636.82" cy="6349.38" r="1.42"/>
		<circle class="st0" cx="2920.28" cy="6349.38" r="1.42"/>
		<circle class="st0" cx="3203.75" cy="6349.38" r="1.42"/>
		<circle class="st0" cx="3487.21" cy="6349.38" r="1.42"/>
		<circle class="st0" cx="3770.68" cy="6349.38" r="1.42"/>
		<circle class="st0" cx="4054.14" cy="6349.38" r="1.42"/>
		<circle class="st0" cx="4621.07" cy="6349.38" r="1.42"/>
		<circle class="st0" cx="4337.61" cy="6349.38" r="1.42"/>
		<circle class="st0" cx="4904.54" cy="6349.38" r="1.42"/>
		<circle class="st0" cx="5188" cy="6349.38" r="1.42"/>
		<circle class="st0" cx="5471.46" cy="6349.38" r="1.42"/>
		<circle class="st0" cx="5754.93" cy="6349.38" r="1.42"/>
	</g>
	<g>
		<circle class="st0" cx="936.03" cy="6668.28" r="1.42"/>
		<circle class="st0" cx="1219.5" cy="6668.28" r="1.42"/>
		<circle class="st0" cx="1502.96" cy="6668.28" r="1.42"/>
		<circle class="st0" cx="1786.43" cy="6668.28" r="1.42"/>
		<circle class="st0" cx="2069.89" cy="6668.28" r="1.42"/>
		<circle class="st0" cx="2353.35" cy="6668.28" r="1.42"/>
		<circle class="st0" cx="2636.82" cy="6668.28" r="1.42"/>
		<circle class="st0" cx="2920.28" cy="6668.28" r="1.42"/>
		<circle class="st0" cx="3203.75" cy="6668.28" r="1.42"/>
		<circle class="st0" cx="3487.21" cy="6668.28" r="1.42"/>
		<circle class="st0" cx="3770.68" cy="6668.28" r="1.42"/>
		<circle class="st0" cx="4054.14" cy="6668.28" r="1.42"/>
		<circle class="st0" cx="4621.07" cy="6668.28" r="1.42"/>
		<circle class="st0" cx="4337.61" cy="6668.28" r="1.42"/>
		<circle class="st0" cx="4904.54" cy="6668.28" r="1.42"/>
		<circle class="st0" cx="5188" cy="6668.28" r="1.42"/>
		<circle class="st0" cx="5471.46" cy="6668.28" r="1.42"/>
		<circle class="st0" cx="5754.93" cy="6668.28" r="1.42"/>
	</g>
	<g>
		<circle class="st0" cx="936.03" cy="6987.18" r="1.42"/>
		<circle class="st0" cx="1219.5" cy="6987.18" r="1.42"/>
		<circle class="st0" cx="1502.96" cy="6987.18" r="1.42"/>
		<circle class="st0" cx="1786.43" cy="6987.18" r="1.42"/>
		<circle class="st0" cx="2069.89" cy="6987.18" r="1.42"/>
		<circle class="st0" cx="2353.35" cy="6987.18" r="1.42"/>
		<circle class="st0" cx="2636.82" cy="6987.18" r="1.42"/>
		<circle class="st0" cx="2920.28" cy="6987.18" r="1.42"/>
		<circle class="st0" cx="3203.75" cy="6987.18" r="1.42"/>
		<circle class="st0" cx="3487.21" cy="6987.18" r="1.42"/>
		<circle class="st0" cx="3770.68" cy="6987.18" r="1.42"/>
		<circle class="st0" cx="4054.14" cy="6987.18" r="1.42"/>
		<circle class="st0" cx="4621.07" cy="6987.18" r="1.42"/>
		<circle class="st0" cx="4337.61" cy="6987.18" r="1.42"/>
		<circle class="st0" cx="4904.54" cy="6987.18" r="1.42"/>
		<circle class="st0" cx="5188" cy="6987.18" r="1.42"/>
		<circle class="st0" cx="5471.46" cy="6987.18" r="1.42"/>
		<circle class="st0" cx="5754.93" cy="6987.18" r="1.42"/>
	</g>
</g>
<g>
	<g>
		<polygon class="st1" points="873,110.33 873,0 214.23,0 214.23,110.33 543.61,300.5 		"/>
	</g>
	<g>
		<g>
			<polygon class="st1" points="33.5,188.38 139.9,250.79 139.9,174.91 543.61,406.98 543.61,310.49 33.5,11.29 			"/>
		</g>
		<g>
			<polygon class="st1" points="1053.73,188.38 947.33,250.79 947.33,174.91 543.61,406.98 543.61,310.49 1053.73,11.29 			"/>
		</g>
	</g>
	<g>
		<g>
			<polygon class="st2" points="139.9,250.79 139.9,279.67 543.61,511.74 543.61,487.59 			"/>
		</g>
		<g>
			<polygon class="st2" points="947.33,250.79 947.33,279.67 543.61,511.74 543.61,487.59 			"/>
		</g>
	</g>
	<g>
		<g>
			<polygon class="st3" points="543.61,406.98 139.9,174.91 139.9,250.79 543.61,487.59 			"/>
		</g>
		<g>
			<polygon class="st3" points="543.61,406.98 947.33,174.91 947.33,250.79 543.61,487.59 			"/>
		</g>
	</g>
	<g>
		<g>
			<polygon class="st3" points="886.53,75.57 886.53,105.63 543.61,302.76 543.61,277.61 			"/>
		</g>
		<g>
			<polygon class="st3" points="200.7,75.57 200.7,105.63 543.61,302.76 543.61,277.61 			"/>
		</g>
	</g>
	<g>
		<g>
			<polygon class="st3" points="1087.23,7.09 1087.23,54.74 543.61,367.24 543.61,327.38 			"/>
		</g>
		<g>
			<polygon class="st3" points="0,7.09 0,54.74 543.61,367.24 543.61,327.38 			"/>
		</g>
	</g>
	<g>
		<polygon class="st4" points="873,0 214.23,0 543.61,277.61 		"/>
	</g>
	<g>
		<g class="st5">
			<path class="st6" d="M410.69,108.83l2.6-3.07c3.87,3.5,7.58,5.25,12.72,5.25c4.98,0,8.27-2.65,8.27-6.31v-0.11
				c0-3.45-1.85-5.41-9.65-7.05c-8.53-1.85-12.45-4.61-12.45-10.7v-0.11c0-5.83,5.14-10.12,12.19-10.12c5.41,0,9.27,1.54,13.04,4.56
				l-2.44,3.23c-3.44-2.81-6.89-4.03-10.7-4.03c-4.82,0-7.9,2.65-7.9,5.99v0.11c0,3.5,1.91,5.46,10.07,7.21
				c8.27,1.8,12.08,4.82,12.08,10.49v0.11c0,6.36-5.3,10.49-12.67,10.49C419.97,114.76,415.14,112.8,410.69,108.83z"/>
			<path class="st6" d="M447.05,77.14h26.81v3.82h-22.63v12.67h20.24v3.82h-20.24v12.98h22.89v3.82h-27.08V77.14z"/>
			<path class="st6" d="M482.56,77.14h15.95c4.56,0,8.21,1.38,10.55,3.71c1.8,1.8,2.86,4.4,2.86,7.31v0.11
				c0,6.15-4.24,9.75-10.07,10.81l11.39,15.16h-5.14l-10.76-14.41h-10.6v14.41h-4.19V77.14z M498.14,96.06
				c5.56,0,9.54-2.86,9.54-7.63v-0.11c0-4.56-3.5-7.31-9.49-7.31h-11.45v15.05H498.14z"/>
			<path class="st6" d="M516.64,77.14h4.66l13.2,31.96l13.25-31.96h4.5L536.3,114.5h-3.71L516.64,77.14z"/>
			<path class="st6" d="M559.94,77.14h4.19v37.1h-4.19V77.14z"/>
			<path class="st6" d="M573.35,95.79v-0.11c0-10.49,7.84-19.18,18.76-19.18c6.73,0,10.76,2.38,14.47,5.88l-2.86,3.07
				c-3.13-2.97-6.62-5.09-11.66-5.09c-8.21,0-14.36,6.68-14.36,15.21v0.11c0,8.58,6.2,15.32,14.36,15.32
				c5.09,0,8.43-1.96,11.98-5.35l2.76,2.7c-3.87,3.92-8.11,6.52-14.84,6.52C581.24,114.87,573.35,106.44,573.35,95.79z"/>
			<path class="st6" d="M614.1,77.14h26.82v3.82h-22.63v12.67h20.24v3.82h-20.24v12.98h22.89v3.82H614.1V77.14z"/>
			<path class="st6" d="M647.18,108.83l2.6-3.07c3.87,3.5,7.58,5.25,12.72,5.25c4.98,0,8.27-2.65,8.27-6.31v-0.11
				c0-3.45-1.85-5.41-9.64-7.05c-8.53-1.85-12.45-4.61-12.45-10.7v-0.11c0-5.83,5.14-10.12,12.19-10.12c5.41,0,9.27,1.54,13.04,4.56
				l-2.44,3.23c-3.45-2.81-6.89-4.03-10.71-4.03c-4.82,0-7.9,2.65-7.9,5.99v0.11c0,3.5,1.91,5.46,10.07,7.21
				c8.27,1.8,12.08,4.82,12.08,10.49v0.11c0,6.36-5.3,10.49-12.67,10.49C656.45,114.76,651.63,112.8,647.18,108.83z"/>
		</g>
	</g>
</g>
</svg>
