<?xml version="1.0" encoding="utf-8"?>
<!-- Generator: Adobe Illustrator 23.1.0, SVG Export Plug-In . SVG Version: 6.00 Build 0)  -->
<svg version="1.1" id="Layer_1" xmlns="http://www.w3.org/2000/svg" xmlns:xlink="http://www.w3.org/1999/xlink" x="0px" y="0px"
	 viewBox="0 0 363.56 265.43" style="enable-background:new 0 0 363.56 265.43;" xml:space="preserve">
<style type="text/css">
	.st0{fill:#FFFFFF;}
</style>
<g>
	<path class="st0" d="M318.49,218.83c-0.55-1.74-1.71-3.05-3.46-3.92c-1.75-0.87-3.96-1.31-6.62-1.31c-2.81,0-5.46,0.46-7.96,1.38
		s-4.73,2.24-6.7,3.96c-1.97,1.72-3.51,3.62-4.62,5.7c-1.11,2.08-2.73,5.62-4.84,10.61l-3.6,8.51c-2.17,5.12-3.56,8.7-4.18,10.75
		c-0.62,2.05-0.65,3.94-0.1,5.68c0.55,1.74,1.71,3.05,3.46,3.92c1.75,0.87,3.96,1.31,6.62,1.31c2.81,0,5.46-0.46,7.96-1.38
		c2.5-0.92,4.73-2.24,6.7-3.96c1.97-1.72,3.51-3.62,4.62-5.7c1.11-2.08,2.73-5.62,4.84-10.61l3.6-8.51
		c2.17-5.12,3.56-8.7,4.18-10.75C319.01,222.47,319.05,220.57,318.49,218.83z M306.54,224.29l-12.29,29.92
		c-0.7,1.7-2.35,2.8-4.18,2.8h-0.2c-1.16,0-1.96-1.18-1.51-2.26l12.29-29.92c0.7-1.7,2.35-2.8,4.18-2.8h0.2
		C306.19,222.03,306.98,223.21,306.54,224.29z"/>
	<polygon class="st0" points="163.5,0 31.67,0 216.31,184.64 348.14,184.64 	"/>
	<polygon class="st0" points="255.54,223.74 247.42,223.74 230.32,265.43 216.88,265.43 233.99,223.74 226.06,223.74 230.24,213.56 
		259.69,213.56 	"/>
	<polygon class="st0" points="260.93,265.43 247.51,265.43 268.82,213.56 282.24,213.56 261.01,265.23 	"/>
	<polygon class="st0" points="363.56,213.61 342.26,265.43 330.78,265.43 332.83,241.76 322.9,265.43 311.57,265.43 332.87,213.61 
		344.21,213.61 342.44,236.85 352.06,213.61 	"/>
	<polygon class="st0" points="20.58,29.48 0,29.48 76.25,105.73 10.67,265.42 183.41,265.42 204.74,213.64 	"/>
</g>
</svg>
