<?xml version="1.0" encoding="utf-8"?>
<!-- Generator: Adobe Illustrator 23.1.0, SVG Export Plug-In . SVG Version: 6.00 Build 0)  -->
<svg version="1.1" id="Layer_1" xmlns="http://www.w3.org/2000/svg" xmlns:xlink="http://www.w3.org/1999/xlink" x="0px" y="0px"
	 viewBox="0 0 136.58 136.58" style="enable-background:new 0 0 136.58 136.58;" xml:space="preserve">
<style type="text/css">
	.st0{fill:#F8F6F2;}
	.st1{fill:#3F4847;}
</style>
<g>
	<g>
		<path class="st0" d="M136.58,113.24c0,12.89-10.45,23.34-23.34,23.34h-89.9C10.45,136.58,0,126.13,0,113.24v-89.9
			C0,10.45,10.45,0,23.34,0h89.9c12.89,0,23.34,10.45,23.34,23.34V113.24z"/>
	</g>
	<g>
		<polygon class="st1" points="116.04,30.79 116.04,30.79 116.04,30.8 		"/>
		<path class="st1" d="M112.29,40.53c-2.07,0.57-3.71,0.48-3.71,0.48l0.07-0.39c1.93-1.54,6.8-6.28,7.44-8.5
			c0.28-0.96-0.05-1.29-0.05-1.32l-6.22,2.64l-5.2,2.35l0,0c-3.59-3.8-9.03-6.22-15.1-6.22c-10.81,0-19.58,7.66-19.58,17.11
			c0,1.73,0.26,4.88,0.8,6.46c0,0.5,0.02-0.5,0,0c-6.96-0.19-15.89-3.05-23.84-7.08c-15.68-7.94-16.66-13.44-16.66-13.44
			C27.77,35.23,26.5,43.88,29,50.67c1.6,4.35,7.09,8.25,7.09,8.25l0,0c0,0-2.46,0.04-5.03-0.82c-2.57-0.87-3.55-1.73-3.55-1.73
			c-1.53,3.73,1.54,10.39,6.85,15.17c3.09,2.79,8.74,4.54,8.74,4.54l-8.82,0.25C33.78,84.9,52.26,90,52.26,90l0,0
			c-5.42,4.17-11.7,6.7-18.44,6.7c-3.49,0-6.87-0.52-10.07-1.48c8.9,7.33,20.34,12.4,32.78,11.75c33-1.74,51.63-30.1,52.52-57.96
			l0.04,0.06c0,0,1.55-0.77,4.85-4.08c3.3-3.31,5.36-7.17,5.36-7.17S114.37,39.96,112.29,40.53z"/>
		<path class="st1" d="M116.04,30.8C116.06,31.32,116.04,30.85,116.04,30.8L116.04,30.8z"/>
	</g>
</g>
</svg>
