<?xml version="1.0" encoding="utf-8"?>
<!-- Generator: Adobe Illustrator 23.0.2, SVG Export Plug-In . SVG Version: 6.00 Build 0)  -->
<svg version="1.1" id="Layer_1" xmlns="http://www.w3.org/2000/svg" xmlns:xlink="http://www.w3.org/1999/xlink" x="0px" y="0px"
	 viewBox="0 0 369 99" style="enable-background:new 0 0 369 99;" xml:space="preserve">
<style type="text/css">
	.st0{fill:#F8F6F3;}
	.st1{fill:#3F4847;}
</style>
<g>
	<g>
		<rect class="st0" width="369" height="99"/>
	</g>
	<g>
		<path class="st1" d="M103.59,30.64h3.92L124.42,68h-4.5l-4.35-9.8H95.38l-4.4,9.8h-4.29L103.59,30.64z M113.93,54.43l-8.43-18.92
			l-8.48,18.92H113.93z"/>
		<path class="st1" d="M131.74,30.9h15.79c4.24,0,7.58,1.22,9.7,3.29c1.54,1.59,2.38,3.55,2.38,5.93v0.11
			c0,4.82-2.97,7.31-5.88,8.58c4.4,1.32,7.95,3.87,7.95,8.96v0.11c0,6.36-5.35,10.12-13.46,10.12h-16.48V30.9z M146.84,47.44
			c5.03,0,8.53-2.28,8.53-6.62v-0.11c0-3.66-2.91-6.04-8.21-6.04h-11.29v12.77H146.84z M148.33,64.24c5.62,0,9.11-2.49,9.11-6.62
			v-0.11c0-4.03-3.39-6.36-9.86-6.36h-11.71v13.09H148.33z"/>
		<path class="st1" d="M168.36,49.56v-0.11c0-10.23,7.68-19.18,18.97-19.18s18.87,8.85,18.87,19.08v0.11
			c0,10.23-7.68,19.18-18.97,19.18C175.94,68.64,168.36,59.79,168.36,49.56z M201.85,49.56v-0.11c0-8.43-6.15-15.32-14.63-15.32
			c-8.48,0-14.52,6.78-14.52,15.21v0.11c0,8.43,6.15,15.32,14.63,15.32S201.85,57.98,201.85,49.56z"/>
		<path class="st1" d="M214.47,52.47V30.9h4.19v21.3c0,8,4.24,12.51,11.34,12.51c6.84,0,11.18-4.13,11.18-12.24V30.9h4.19v21.25
			c0,10.81-6.2,16.43-15.47,16.43C220.72,68.58,214.47,62.97,214.47,52.47z"/>
		<path class="st1" d="M265.08,34.77h-12.45V30.9h29.15v3.87h-12.45V68h-4.24V34.77z"/>
	</g>
</g>
</svg>
