<?xml version="1.0" encoding="utf-8"?>
<!-- Generator: Adobe Illustrator 23.1.0, SVG Export Plug-In . SVG Version: 6.00 Build 0)  -->
<svg version="1.1" id="Layer_1" xmlns="http://www.w3.org/2000/svg" xmlns:xlink="http://www.w3.org/1999/xlink" x="0px" y="0px"
	 viewBox="0 0 272 250" style="enable-background:new 0 0 272 250;" xml:space="preserve">
<style type="text/css">
	.st0{fill:#B3D334;}
	.st1{fill:#A6CE39;}
	.st2{fill:#CADB32;}
	.st3{fill:#9BCB3C;}
	.st4{fill:#BED632;}
	.st5{fill:#3F4847;}
</style>
<g>
	<g>
		<polygon class="st0" points="14.67,178.67 0,86.67 98,82 		"/>
		<polygon class="st1" points="76.67,226 14.67,178.67 98,82 		"/>
		<polygon class="st2" points="242,196 272,250 150.67,223 		"/>
		<polygon class="st0" points="76.67,226 150.67,223 182.5,230.08 		"/>
		<polygon class="st0" points="242,196 242,96 272,120.67 		"/>
		<polygon class="st1" points="98,82 56.33,20.67 0,86.67 		"/>
		<polygon class="st3" points="150.67,223 98,82 76.67,226 		"/>
		<polygon class="st2" points="56.33,20.67 106,0 75.04,48.2 		"/>
		<polygon class="st0" points="242,96 198,12.67 248.67,48.2 		"/>
		<polygon class="st1" points="272,120.67 248.67,48.2 242,96 		"/>
		<polygon class="st1" points="198,12.67 106,0 242,96 		"/>
		<polygon class="st0" points="98,82 106,0 75.04,48.2 		"/>
		<polygon class="st0" points="150.67,223 242,140 242,196 		"/>
		<polygon class="st0" points="242,96 98,82 106,0 		"/>
		<polygon class="st4" points="242,140 98,82 242,96 		"/>
		<polygon class="st0" points="150.67,223 170,111 242,140 		"/>
		<polygon class="st0" points="98,82 150.67,223 170,111 		"/>
	</g>
	<g>
		<path class="st5" d="M64.76,96.46h3.96l6.44,10.01l6.44-10.01h3.96v21.16h-3.72v-15.18l-6.68,9.98h-0.12l-6.62-9.92v15.12h-3.66
			V96.46z"/>
		<path class="st5" d="M91,96.46h15.69v3.33H94.72v5.5h10.61v3.33H94.72v5.68h12.12v3.33H91V96.46z"/>
		<path class="st5" d="M109.84,114.54l2.24-2.66c2.03,1.75,4.05,2.75,6.68,2.75c2.3,0,3.75-1.06,3.75-2.66v-0.06
			c0-1.51-0.85-2.33-4.78-3.24c-4.51-1.09-7.04-2.42-7.04-6.32v-0.06c0-3.63,3.02-6.14,7.23-6.14c3.08,0,5.53,0.94,7.68,2.66
			l-2,2.81c-1.9-1.42-3.81-2.18-5.74-2.18c-2.18,0-3.45,1.12-3.45,2.51v0.06c0,1.63,0.97,2.36,5.02,3.33c4.48,1.09,6.8,2.69,6.8,6.2
			v0.06c0,3.96-3.11,6.32-7.56,6.32C115.43,117.93,112.38,116.81,109.84,114.54z"/>
		<path class="st5" d="M128.89,114.54l2.24-2.66c2.03,1.75,4.05,2.75,6.68,2.75c2.3,0,3.75-1.06,3.75-2.66v-0.06
			c0-1.51-0.85-2.33-4.78-3.24c-4.51-1.09-7.04-2.42-7.04-6.32v-0.06c0-3.63,3.02-6.14,7.23-6.14c3.08,0,5.53,0.94,7.68,2.66
			l-2,2.81c-1.9-1.42-3.81-2.18-5.74-2.18c-2.18,0-3.45,1.12-3.45,2.51v0.06c0,1.63,0.97,2.36,5.02,3.33c4.47,1.09,6.8,2.69,6.8,6.2
			v0.06c0,3.96-3.11,6.32-7.56,6.32C134.48,117.93,131.43,116.81,128.89,114.54z"/>
		<path class="st5" d="M156.7,96.31h3.45l9.31,21.32h-3.93l-2.15-5.11h-10.01l-2.18,5.11h-3.81L156.7,96.31z M162.02,109.22
			l-3.66-8.47l-3.63,8.47H162.02z"/>
		<path class="st5" d="M170.85,107.1v-0.06c0-5.93,4.54-10.94,10.91-10.94c3.69,0,5.96,1.03,8.13,2.87l-2.36,2.81
			c-1.63-1.39-3.24-2.27-5.93-2.27c-3.9,0-6.86,3.42-6.86,7.47v0.06c0,4.35,2.87,7.56,7.2,7.56c2,0,3.81-0.64,5.11-1.6v-3.96h-5.41
			v-3.24h9.01v8.89c-2.09,1.78-5.08,3.3-8.83,3.3C175.2,117.99,170.85,113.27,170.85,107.1z"/>
		<path class="st5" d="M195.49,96.46h15.69v3.33h-11.97v5.5h10.61v3.33h-10.61v5.68h12.12v3.33h-15.84V96.46z"/>
		<path class="st5" d="M112.44,132.74h3.96l6.44,10.01l6.44-10.01h3.96v21.16h-3.72v-15.18l-6.68,9.98h-0.12l-6.62-9.92v15.12h-3.66
			V132.74z"/>
		<path class="st5" d="M138.68,132.74h15.69v3.33H142.4v5.5h10.61v3.33H142.4v5.68h12.12v3.33h-15.84V132.74z"/>
		<path class="st5" d="M158.64,133.8v-1.06h4.29v1.06l-1.12,13.42h-2.03L158.64,133.8z M158.79,149.76h4.02v4.14h-4.02V149.76z"/>
	</g>
</g>
</svg>
