<?xml version="1.0" encoding="utf-8"?>
<!-- Generator: Adobe Illustrator 23.0.2, SVG Export Plug-In . SVG Version: 6.00 Build 0)  -->
<svg version="1.1" id="Layer_1" xmlns="http://www.w3.org/2000/svg" xmlns:xlink="http://www.w3.org/1999/xlink" x="0px" y="0px"
	 viewBox="0 0 369 99" style="enable-background:new 0 0 369 99;" xml:space="preserve">
<style type="text/css">
	.st0{fill:#F8F6F3;}
	.st1{fill:#3F4847;}
</style>
<g>
	<g>
		<rect class="st0" width="369" height="99"/>
	</g>
	<g>
		<path class="st1" d="M52.11,62.6l2.6-3.07c3.87,3.5,7.58,5.25,12.72,5.25c4.98,0,8.27-2.65,8.27-6.31v-0.11
			c0-3.45-1.85-5.4-9.65-7.05c-8.53-1.85-12.45-4.61-12.45-10.7V40.5c0-5.83,5.14-10.12,12.19-10.12c5.41,0,9.27,1.54,13.04,4.56
			l-2.44,3.23c-3.44-2.81-6.89-4.03-10.7-4.03c-4.82,0-7.9,2.65-7.9,5.99v0.11c0,3.5,1.91,5.46,10.07,7.21
			c8.27,1.8,12.08,4.82,12.08,10.49v0.11c0,6.36-5.3,10.49-12.67,10.49C61.38,68.53,56.56,66.57,52.11,62.6z"/>
		<path class="st1" d="M88.46,30.9h26.81v3.82H92.65v12.67h20.24v3.81H92.65v12.98h22.89V68H88.46V30.9z"/>
		<path class="st1" d="M123.97,30.9h15.95c4.56,0,8.21,1.38,10.55,3.71c1.8,1.8,2.86,4.4,2.86,7.31v0.11
			c0,6.15-4.24,9.75-10.07,10.81L154.66,68h-5.14l-10.76-14.41h-10.6V68h-4.19V30.9z M139.55,49.82c5.56,0,9.54-2.86,9.54-7.63
			v-0.11c0-4.56-3.5-7.31-9.49-7.31h-11.45v15.05H139.55z"/>
		<path class="st1" d="M158.05,30.9h4.66l13.2,31.96l13.25-31.96h4.5l-15.95,37.36H174L158.05,30.9z"/>
		<path class="st1" d="M201.35,30.9h4.19V68h-4.19V30.9z"/>
		<path class="st1" d="M214.76,49.56v-0.11c0-10.49,7.84-19.18,18.76-19.18c6.73,0,10.76,2.38,14.47,5.88l-2.86,3.07
			c-3.13-2.97-6.62-5.09-11.66-5.09c-8.21,0-14.36,6.68-14.36,15.21v0.11c0,8.58,6.2,15.31,14.36,15.31c5.09,0,8.43-1.96,11.98-5.35
			l2.75,2.7c-3.87,3.92-8.11,6.52-14.84,6.52C222.66,68.64,214.76,60.21,214.76,49.56z"/>
		<path class="st1" d="M255.52,30.9h26.81v3.82H259.7v12.67h20.24v3.81H259.7v12.98h22.89V68h-27.08V30.9z"/>
		<path class="st1" d="M288.59,62.6l2.6-3.07c3.87,3.5,7.58,5.25,12.72,5.25c4.98,0,8.27-2.65,8.27-6.31v-0.11
			c0-3.45-1.86-5.4-9.65-7.05c-8.53-1.85-12.45-4.61-12.45-10.7V40.5c0-5.83,5.14-10.12,12.19-10.12c5.41,0,9.27,1.54,13.04,4.56
			l-2.44,3.23c-3.44-2.81-6.89-4.03-10.71-4.03c-4.82,0-7.9,2.65-7.9,5.99v0.11c0,3.5,1.91,5.46,10.07,7.21
			c8.27,1.8,12.08,4.82,12.08,10.49v0.11c0,6.36-5.3,10.49-12.67,10.49C297.87,68.53,293.04,66.57,288.59,62.6z"/>
	</g>
</g>
</svg>
